<defs>
<font horiz-adv-x="544" ><font-face
    font-family="texgyrepagella-italic"
    units-per-em="1000"
    panose-1="0 0 5 0 0 0 0 0 0 0"
    ascent="1094"
    descent="-276"
    alphabetic="0" />
<missing-glyph horiz-adv-x="280" />
<glyph unicode=" " glyph-name="space" horiz-adv-x="250" />
<glyph unicode="!" glyph-name="exclam" horiz-adv-x="333" d="M181 61Q181 33 163 13T120 -8Q100 -8 88 4T76 39Q76 68 93 88T136 109Q155 109 168 95T181 61ZM292 724L169 208L139 191L133 194L154 348L189 636L196 707L281 733L292 724Z" />
<glyph unicode="&quot;" glyph-name="quotedbl" horiz-adv-x="500" d="M288 694Q288 673 279 661L170 508H140L202 695Q214 733 247 733Q264 733 276 722T288 694ZM455 694Q455 673 446 661L337 508H307L369 695Q381 733 414 733Q431 733 443 722T455 694Z" />
<glyph unicode="#" glyph-name="numbersign" horiz-adv-x="500" d="M470 227H361L330 0H272L303 227H169L136 0H78L111 227H4V283H120L141 423H31V479H149L180 692H238L207 479H340L370 692H428L398 479H495V423H390L370 283H470V227ZM312 283L332 423H199L178 283H312Z" />
<glyph unicode="$" glyph-name="dollar" horiz-adv-x="500" d="M434 224Q434 170 405 120T324 34Q273 -1 205 -11L191 -113H150L170 -12Q52 1 15 30Q28 86 37 175H63V85Q97 46 178 32L222 305Q140 323 106 355T72 449Q72 548 154 613Q197 648 280 671L289 733H326L316
673Q400 672 450 639L452 629Q436 568 427 514H403V586Q371 621 308 628L267 371Q355 357 391 326Q434 291 434 224ZM360 193Q360 240 337 263T255 301L212 32Q261 35 294 59Q325 81 342 117T360 193ZM234 377L274 628Q229 627 200 605Q172 585 156 551T139 480Q139
439 161 415T234 377Z" />
<glyph unicode="%" glyph-name="percent" horiz-adv-x="889" d="M386 562Q386 485 337 432T215 379Q154 379 114 419T74 522Q74 592 128 645T254 699Q311 699 348 660T386 562ZM320 589Q320 630 303 653T254 676Q207 676 176 625T144 499Q144 454 163 428T214
402Q258 402 288 453Q320 510 320 589ZM809 183Q809 106 760 53T638 0Q577 0 537 40T497 143Q497 213 551 266T677 320Q734 320 771 281T809 183ZM743 210Q743 251 726 274T677 297Q630 297 599 246T567 120Q567 75 586 49T637 23Q681 23 711 74Q743 131 743 210ZM674
710L247 -7H206L630 710H674Z" />
<glyph unicode="&amp;" glyph-name="ampersand" horiz-adv-x="778" d="M766 444Q766 394 733 362T640 321L555 309L572 307Q596 304 615 278T634 223Q634 169 589 116T463 22T287 -18Q177 -18 112 33T47 173Q47 263 107 314Q134 338 164 353T256 390Q214 410 196
433T177 490Q177 541 222 594T337 676Q373 692 417 692Q467 692 514 667L488 548H465V610Q416 642 375 642Q322 642 286 607T249 522Q249 453 318 428Q342 419 389 419Q369 379 369 371V369H333Q243 369 187 320T130 194Q130 120 186 75T333 29Q425 29 494 80T564
199Q564 239 539 263T474 288Q439 288 424 272T397 205L374 207L382 306Q405 329 429 338T507 357L618 375Q731 393 731 456Q731 475 723 485T693 508L714 524Q742 511 754 493T766 444Z" />
<glyph unicode="&apos;" glyph-name="quotesingle" horiz-adv-x="333" d="M288 694Q288 673 279 661L170 508H140L202 695Q214 733 247 733Q264 733 276 722T288 694Z" />
<glyph unicode="(" glyph-name="parenleft" horiz-adv-x="333" d="M200 -93L178 -106Q98 23 75 104Q54 180 54 257Q54 405 139 539Q170 587 205 628T308 733L331 712Q262 634 229 583T171 469Q126 354 126 210Q126 62 174 -38L200 -93Z" />
<glyph unicode=")" glyph-name="parenright" horiz-adv-x="333" d="M279 370Q279 221 193 88Q141 6 25 -106L2 -85Q71 -7 104 44T162 158Q207 274 207 417Q207 564 159 665L133 720L155 733Q235 604 258 523Q279 447 279 370Z" />
<glyph unicode="*" glyph-name="asterisk" horiz-adv-x="389" d="M400 511L394 505L249 524L314 404L310 396L252 368L245 372L223 514L116 417H104L78 474L82 481L209 537L81 599L76 608L109 665H119L223 560L245 701L255 706L318 688V680L247 549L387 574L394
569L400 511Z" />
<glyph unicode="+" glyph-name="plus" horiz-adv-x="606" d="M566 222H331V-13H275V222H40V278H275V513H331V278H566V222Z" />
<glyph unicode="," glyph-name="comma" horiz-adv-x="250" d="M203 110Q156 1 50 -130L15 -143L8 -133Q65 -61 95 62L103 94L194 123L203 110Z" />
<glyph unicode="-" glyph-name="hyphen" horiz-adv-x="333" d="M304 281L286 223H19L38 281H304Z" />
<glyph unicode="." glyph-name="period" horiz-adv-x="250" d="M158 64Q158 36 140 16T97 -5Q77 -5 65 7T53 42Q53 71 70 91T113 112Q132 112 145 98T158 64Z" />
<glyph unicode="/" glyph-name="slash" horiz-adv-x="296" d="M392 733L20 -119H-40L332 733H392Z" />
<glyph unicode="0" glyph-name="zero" horiz-adv-x="500" d="M480 468Q480 376 459 282T400 121Q328 -11 208 -11Q125 -11 81 52T36 231Q36 333 62 433T133 597Q204 699 308 699Q388 699 434 637T480 468ZM351 171Q373 236 388 332T404 502Q404 670 302 670Q249
670 214 622T150 465Q112 311 112 178Q112 18 212 18Q257 18 290 55T351 171Z" />
<glyph unicode="1" glyph-name="one" horiz-adv-x="500" d="M398 24L393 -3Q309 0 224 0Q140 0 54 -3L59 24L144 34Q167 37 176 50T192 102L278 629Q263 623 251 620T224 610T175 587L91 546L84 551L95 610L119 616Q218 641 259 658L359 699L374 688L350 573L276
136Q268 88 268 76Q268 50 280 40T327 28L398 24Z" />
<glyph unicode="2" glyph-name="two" horiz-adv-x="500" d="M432 66L415 -3Q314 0 214 0Q112 0 12 -3V15L61 67Q169 180 251 286Q352 417 352 523Q352 572 321 603T241 634Q198 634 167 610T98 526L76 535L136 655Q197 699 268 699Q345 699 391 656T437 538Q437
429 348 332L101 63H311Q363 63 426 74L432 66Z" />
<glyph unicode="3" glyph-name="three" horiz-adv-x="500" d="M447 235Q447 133 366 61T170 -11Q88 -11 22 33L50 178L74 173Q70 141 70 130Q70 80 103 52T193 23Q256 23 297 66Q361 132 361 228Q361 292 326 327T226 362Q192 362 148 346L142 358L160 401Q176
401 204 399Q268 396 314 439T360 545Q360 587 333 612T259 638Q226 638 204 626T152 580L131 556L112 569L170 668Q237 699 286 699Q354 699 396 663T439 569Q439 515 406 475T294 393Q363 376 395 353Q447 313 447 235Z" />
<glyph unicode="4" glyph-name="four" horiz-adv-x="500" d="M441 24L436 -3Q354 0 271 0Q188 0 105 -3L110 24L196 34Q221 37 231 48T248 90L268 192H15V223L352 684L421 699L429 694L346 248H474L478 243L462 188Q411 191 409 191H336L327 138Q318 86 318 54Q318
38 354 34L441 24ZM345 621L75 248H278L345 621Z" />
<glyph unicode="5" glyph-name="five" horiz-adv-x="500" d="M445 266Q445 198 407 128Q372 63 309 26T169 -11Q81 -11 14 41Q28 90 43 180L66 175Q63 151 63 136Q63 86 97 56T187 25Q252 25 293 68Q359 136 359 247Q359 315 327 352T235 389Q201 389 174 376T115
329L94 338L158 688L166 693L187 692Q309 686 333 686L453 689L485 690L491 681L456 623Q371 618 309 618Q256 618 188 623L137 382Q195 434 276 434Q353 434 399 389T445 266Z" />
<glyph unicode="6" glyph-name="six" horiz-adv-x="500" d="M448 263Q448 187 413 125Q380 65 321 27T202 -11Q130 -11 90 45T49 200Q49 406 182 568Q237 636 294 667T421 699Q446 699 469 694L453 635H445Q408 653 380 653Q278 653 209 531Q164 452 133 311Q180
368 221 392T312 417Q376 417 412 377T448 263ZM372 236Q372 295 344 328T265 362Q204 362 165 309T125 174Q125 111 155 73T234 35Q293 35 332 92T372 236Z" />
<glyph unicode="7" glyph-name="seven" horiz-adv-x="500" d="M502 653L376 450Q256 257 140 -3Q117 0 102 0Q79 0 58 -3L53 5Q91 62 154 164L432 613H190Q174 613 91 608L85 612Q86 617 87 625T92 650T98 679T100 689Q247 686 395 686Q448 686 502 689V653Z" />
<glyph unicode="8" glyph-name="eight" horiz-adv-x="500" d="M431 228Q431 134 358 62T188 -11Q119 -11 78 27T36 130Q36 207 98 272Q139 314 217 352Q117 409 117 490Q117 568 186 633T336 699Q397 699 433 666T469 576Q469 519 438 477T320 378Q385 342 408
311T431 228ZM355 195Q355 240 338 266T273 321L244 338Q112 269 112 148Q112 93 140 62T221 31Q279 31 317 77T355 195ZM401 556Q401 601 374 629T304 657Q253 657 219 619T185 522Q185 454 257 413L291 394Q401 465 401 556Z" />
<glyph unicode="9" glyph-name="nine" horiz-adv-x="500" d="M468 481Q468 379 439 284T355 118Q309 57 253 23T142 -11Q101 -11 63 8Q62 12 60 19T56 34Q43 86 32 111L53 119Q76 75 103 56T168 37Q265 37 324 162Q357 232 386 377Q342 322 304 299T219 276Q152
276 112 321T71 440Q71 544 143 621T312 699Q388 699 428 644T468 481ZM392 508Q392 574 362 614T283 654Q224 654 186 602T147 469Q147 403 176 367T259 330Q317 330 354 380T392 508Z" />
<glyph unicode=":" glyph-name="colon" horiz-adv-x="250" d="M149 64Q149 36 131 16T88 -5Q68 -5 56 7T44 42Q44 71 61 91T104 112Q123 112 136 98T149 64ZM207 410Q207 381 189 361T146 341Q126 341 114 353T102 388Q102 417 119 437T162 458Q181 458 194 444T207 410Z" />
<glyph unicode=";" glyph-name="semicolon" horiz-adv-x="250" d="M186 107Q139 -2 33 -133L-2 -146L-9 -136Q48 -64 78 59L86 91L177 120L186 107ZM219 408Q219 379 201 359T158 339Q138 339 126 351T114 386Q114 415 131 435T174 456Q193 456 206 442T219 408Z" />
<glyph unicode="&lt;" glyph-name="less" horiz-adv-x="606" d="M526 7L68 225V275L526 493V431L145 250L526 69V7Z" />
<glyph unicode="=" glyph-name="equal" horiz-adv-x="606" d="M566 309H40V365H566V309ZM566 136H40V192H566V136Z" />
<glyph unicode="&gt;" glyph-name="greater" horiz-adv-x="606" d="M526 225L68 7V69L449 250L68 431V493L526 275V225Z" />
<glyph unicode="?" glyph-name="question" horiz-adv-x="500" d="M427 572Q427 498 353 427L249 327Q199 280 199 250Q199 227 226 199L201 193Q163 217 163 256Q163 305 218 367L288 446Q345 510 345 562Q345 599 317 623T246 647Q215 647 196 636T157 595L137
565L115 571L155 669Q215 706 270 706Q340 706 383 669T427 572ZM219 61Q219 33 201 13T158 -8Q138 -8 126 4T114 39Q114 68 131 88T174 109Q193 109 206 95T219 61Z" />
<glyph unicode="@" glyph-name="at" horiz-adv-x="747" d="M713 176Q675 110 636 75Q532 -18 394 -18Q239 -18 133 85T27 338Q27 493 132 599T389 706Q528 706 623 622T718 413Q718 299 645 221Q611 184 566 161T486 138Q455 138 436 161T414 226Q377 177 353
161T292 144Q236 144 198 187T160 292Q160 378 226 448T374 518Q412 518 433 498T463 433L483 509H558L479 218Q477 210 477 202Q477 186 486 176T508 165Q545 165 597 217Q677 300 677 410Q677 515 594 588T391 661Q255 661 164 570T72 344Q72 208 165 118T399
27Q506 27 589 92Q627 121 666 176H713ZM446 417Q446 450 430 472T389 494Q348 494 315 459Q280 422 258 367T236 260Q236 221 255 195T303 168Q358 168 398 241Q418 276 432 327T446 417Z" />
<glyph unicode="A" glyph-name="A" horiz-adv-x="722" d="M677 -3Q617 0 555 0Q494 0 433 -3V25L477 28Q520 31 520 55Q520 59 518 77L491 277H245L143 102Q117 58 117 47Q117 40 126 35T148 28L200 25V-3Q148 0 93 0Q36 0 -19 -3V27L1 32Q27 38 45 54T89 112L462
705H508L595 80Q599 46 607 39T651 28L677 25V-3ZM486 313L449 601L270 313H486Z" />
<glyph unicode="B" glyph-name="B" horiz-adv-x="611" d="M543 227Q543 109 420 36Q355 -3 278 -3Q251 -3 198 -2T117 0Q71 0 26 -3L31 23Q63 28 75 35T89 55L176 559Q185 613 185 635Q185 661 150 662L97 664L100 692Q175 689 251 689Q276 689 326 690T401 692Q463
692 511 656T559 562Q559 486 490 425Q449 390 377 365Q469 352 502 325Q543 292 543 227ZM455 211Q455 340 302 340H217L166 41Q192 39 200 38Q244 34 282 34Q357 34 406 84T455 211ZM473 544Q473 655 352 655Q338 655 312 653T272 650L223 376H275Q368 376 420
420T473 544Z" />
<glyph unicode="C" glyph-name="C" horiz-adv-x="667" d="M610 103L600 67Q532 21 474 2T343 -18Q199 -18 122 60T45 284Q45 514 222 634Q329 706 456 706Q542 706 651 665Q631 599 624 519H597V603Q519 653 418 653Q298 653 228 581Q133 484 133 309Q133 175
195 105T376 35Q435 35 482 51T600 110L610 103Z" />
<glyph unicode="D" glyph-name="D" horiz-adv-x="778" d="M741 431Q741 307 674 201T489 34Q415 -3 316 -3Q284 -3 219 -2T121 0Q74 0 28 -3L33 23Q35 23 43 25T54 28T65 32T75 37T81 44T86 55L173 559Q182 613 182 635Q182 661 147 662L94 664L97 692Q158 689
220 689Q254 689 322 690T424 692Q491 692 554 679T650 642Q741 578 741 431ZM649 415Q649 538 585 596T384 655Q364 655 326 653T268 650L172 93Q168 69 168 56Q270 41 329 41Q462 41 543 124Q649 232 649 415Z" />
<glyph unicode="E" glyph-name="E" horiz-adv-x="611" d="M514 0Q509 0 485 -1T409 -3Q372 -3 297 -2T184 0Q106 0 30 -3L35 23Q68 28 80 34T95 55L182 559Q191 607 191 636Q191 661 156 662L102 664L105 692Q185 689 265 689Q305 689 383 690T501 692Q537 692
570 689Q553 632 549 537H525L517 626Q515 650 410 650Q369 649 280 646Q275 636 271 614L229 376H266L485 382L489 375L470 330Q461 330 453 331T419 333T338 334H221L178 81Q176 69 176 46Q250 39 307 39Q419 39 457 49Q473 53 481 64T496 101L512 161H539Q523
81 518 36L514 0Z" />
<glyph unicode="F" glyph-name="F" horiz-adv-x="556" d="M527 537H503L495 626Q493 650 392 650Q291 646 269 646Q264 635 260 614L214 343H251L470 349L474 342L455 297Q446 297 438 298T404 300T323 301H206L170 78Q168 70 168 57Q168 42 176 36T204 28L268
25L265 -3Q196 0 127 0Q63 0 0 -3L4 25L40 28Q71 30 78 43T98 125L173 559Q182 613 182 635Q182 661 147 662L91 664L94 692Q169 689 246 689Q285 689 363 690T481 692Q515 692 548 689Q532 632 527 537Z" />
<glyph unicode="G" glyph-name="G" horiz-adv-x="722" d="M692 246L660 240Q637 236 633 219L610 84Q608 71 612 44L608 37Q585 33 552 22Q432 -18 355 -18Q208 -18 129 58T50 274Q50 503 229 632Q333 706 466 706Q562 706 675 665Q655 599 648 519H621V603Q543
653 434 653Q310 653 237 579Q138 480 138 297Q138 164 202 96T390 27Q466 27 528 60L546 153Q553 187 553 212Q553 230 539 235T469 244L435 246Q435 246 440 272Q504 269 569 269Q631 269 694 272L692 246V246Z" />
<glyph unicode="H" glyph-name="H" horiz-adv-x="778" d="M705 -3Q639 0 573 0Q502 0 432 -3L436 25L486 28Q517 29 523 42Q530 51 544 125L584 340Q472 343 400 343L216 340L174 93Q170 68 170 58Q170 42 178 36T206 28L255 25L252 -3Q190 0 129 0Q63 0 -3 -3L1
25L42 28Q72 30 80 43T100 125L174 559Q183 615 183 635Q183 661 148 662L101 664L104 692Q174 689 245 689Q302 689 359 692L356 664L314 661Q286 659 277 651T263 613L221 385H591L621 559Q630 613 630 635Q630 661 595 662L547 664L550 692Q620 689 693 689Q746
689 800 692L797 664L761 661Q733 659 724 651T710 613L618 93Q614 70 614 58Q614 29 650 28L708 25L705 -3Z" />
<glyph unicode="I" glyph-name="I" horiz-adv-x="333" d="M259 -3Q196 0 133 0T7 -3L10 25L46 28Q76 30 84 44T104 125L176 559Q185 608 185 636Q185 661 150 662L103 664L106 692Q174 689 242 689Q298 689 354 692L351 664L316 661Q287 659 279 651T265 613L176
78Q174 68 174 57Q174 42 182 36T210 28L262 25L259 -3Z" />
<glyph unicode="J" glyph-name="J" horiz-adv-x="333" d="M355 664L313 661Q285 659 276 651T262 613L177 54Q166 -24 143 -78Q118 -139 81 -172T3 -206Q-16 -206 -32 -196L-35 -170Q-24 -174 -6 -174Q64 -174 86 -21L181 622Q182 627 182 635Q182 661 147 662L100
664L103 692Q174 689 244 689Q301 689 358 692L355 664Z" />
<glyph unicode="K" glyph-name="K" horiz-adv-x="667" d="M646 -3Q613 0 578 0Q544 0 509 -3Q429 106 386 159T231 340L188 78Q186 70 186 57Q186 42 194 36T222 28L271 25L268 -3Q206 0 145 0Q79 0 13 -3L17 25L58 28Q88 30 96 43T116 125L189 559Q198 608 198
635Q198 661 163 662L116 664L119 692Q190 689 260 689Q317 689 374 692L371 664L329 661Q301 659 292 651T278 613L233 353Q322 422 382 484L510 614Q548 652 548 663V692Q581 689 615 689Q648 689 683 692V665H662Q635 665 608 640L316 367L562 65Q593 27 626
27H646V-3Z" />
<glyph unicode="L" glyph-name="L" horiz-adv-x="556" d="M500 0Q465 -3 395 -3Q358 -3 283 -2T170 0Q92 0 16 -3L21 23Q54 28 66 34T81 55L167 559Q176 608 176 636Q176 661 141 662L94 664L97 692Q164 689 232 689Q292 689 352 692L349 664L307 661Q279 659
270 651T256 613L164 81Q162 69 162 46Q234 39 304 39Q426 39 448 50Q462 55 475 103L492 165H523Q498 46 500 0Z" />
<glyph unicode="M" glyph-name="M" horiz-adv-x="944" d="M899 -3Q833 0 766 0Q700 0 632 -3L635 25L666 28Q705 32 718 39T733 67L770 587L718 500L479 86L422 -18H399L250 560L126 96Q119 71 119 55Q119 33 168 28L206 25L203 -3Q149 0 93 0Q36 0 -19 -3L-16
23Q25 27 42 40T70 93L215 602Q218 612 218 622Q218 641 203 650T148 662L122 664L125 692Q166 689 208 689T292 692L442 114L688 536Q718 587 734 617T755 655T763 672T773 692Q814 689 856 689T940 692L937 664L899 662Q854 659 853 631L812 100L811 63Q810 47
824 39T865 28L902 25L899 -3Z" />
<glyph unicode="N" glyph-name="N" horiz-adv-x="778" d="M804 692L799 664L762 662Q742 661 734 654T719 625T702 542L608 -11H558L220 566L140 102Q137 86 137 72Q137 47 146 39T186 28L228 25L223 -3Q169 0 113 0Q58 0 2 -3L7 25L38 28Q65 30 74 42T92 102L180
576Q185 591 185 606T155 645Q136 660 105 662L70 664L75 692Q116 689 156 689T237 692L582 103L662 592Q667 624 667 638Q667 661 631 662L584 664L589 692Q642 689 694 689Q748 689 804 692Z" />
<glyph unicode="O" glyph-name="O" horiz-adv-x="778" d="M748 425Q748 306 693 203T544 42Q449 -18 323 -18Q191 -18 122 56T53 272Q53 460 169 583T464 706Q599 706 673 633T748 425ZM660 409Q660 575 563 632Q510 664 433 664Q320 664 250 593Q198 541 170
458T141 277Q141 152 196 88T360 24Q478 24 552 100Q603 153 631 234T660 409Z" />
<glyph unicode="P" glyph-name="P" horiz-adv-x="611" d="M594 541Q594 439 523 364T355 288Q316 288 269 311L267 342Q317 323 346 323Q412 323 459 380T506 519Q506 656 355 656Q332 656 284 648Q282 641 280 632T277 620L268 580L186 93Q182 68 182 58Q182
29 218 28L283 25L280 -3Q211 0 141 0Q75 0 9 -3L13 25L54 28Q84 30 92 43T112 125L186 559Q195 615 195 635Q195 661 160 662L105 664L108 692Q190 689 274 689Q297 689 343 690T412 692Q484 692 539 652T594 541Z" />
<glyph unicode="Q" glyph-name="Q" horiz-adv-x="778" d="M708 -61Q700 -134 672 -167T587 -201Q557 -201 536 -194T469 -164L324 -88Q270 -59 228 -59Q151 -59 151 -172L127 -159L126 -142Q123 -86 159 -51T251 -15Q282 -15 317 -29L553 -125Q592 -140 615 -140Q674
-140 683 -61H708ZM748 425Q748 306 693 203T544 42Q449 -18 323 -18Q191 -18 122 56T53 272Q53 460 169 583T464 706Q599 706 673 633T748 425ZM660 409Q660 575 563 632Q510 664 433 664Q320 664 250 593Q198 541 170 458T141 277Q141 152 196 88T360 24Q478
24 552 100Q603 153 631 234T660 409Z" />
<glyph unicode="R" glyph-name="R" horiz-adv-x="667" d="M639 -3Q610 0 581 0Q544 0 507 -3Q420 145 267 367L270 378H314Q392 378 444 425T496 543Q496 656 363 656Q326 656 287 648L280 620L271 580L186 93Q182 70 182 58Q182 43 190 36T218 28L267 25L264
-3Q202 0 141 0Q75 0 9 -3L13 25L54 28Q84 30 92 43T112 125L187 559Q196 613 196 635Q196 661 161 662L105 664L108 692Q183 689 259 689Q284 689 334 690T409 692Q477 692 530 657T584 560Q584 466 495 402Q447 367 375 354L559 79Q580 48 594 38T639 24V-3Z"
/>
<glyph unicode="S" glyph-name="S" horiz-adv-x="556" d="M485 234Q485 132 399 57T197 -18Q118 -18 42 20Q57 92 66 172H96V73Q157 30 232 30Q309 30 357 74T406 191Q406 277 325 296L230 319Q167 334 138 370T108 471Q108 559 171 622Q257 706 374 706Q441 706
506 672Q487 612 481 537H451V613Q409 658 339 658Q270 658 225 616T180 508Q180 411 276 391L341 377Q417 360 451 327T485 234Z" />
<glyph unicode="T" glyph-name="T" horiz-adv-x="611" d="M608 528H580L584 592Q586 613 580 629Q576 646 463 646H390L296 93Q292 72 292 58Q292 29 328 28L387 25L384 -3Q318 0 251 0Q180 0 109 -3L113 25L164 28Q194 30 202 43T222 125L308 646H196Q126 646
115 633Q104 621 97 588L82 528H53L71 692Q212 689 353 689T635 692L608 528Z" />
<glyph unicode="U" glyph-name="U" horiz-adv-x="778" d="M709 25L704 -3Q662 0 619 0Q575 0 530 -3L525 2Q544 81 552 129Q513 84 484 61T409 15Q341 -19 276 -19Q192 -19 145 24T97 145Q97 173 103 206L167 581Q174 621 174 639Q174 652 167 656T140 662L88
664L91 692Q136 689 181 689Q225 689 270 692L182 215Q175 179 175 155Q175 101 212 70T314 39Q443 39 556 177L627 622Q630 643 623 652T593 662L545 664L548 692Q615 689 685 689Q741 689 798 692L795 664L759 661Q731 659 722 651T708 613L623 106Q617 68 617
50T649 29L709 25Z" />
<glyph unicode="V" glyph-name="V" horiz-adv-x="722" d="M754 664L736 662Q715 660 704 651T674 611L296 -8H247L159 614Q155 641 144 650T100 662L75 664V692Q136 689 199 689T323 692V664L281 662Q257 661 247 654T239 624L310 96L601 588Q617 615 617 630Q617
658 560 662L534 664V692Q595 689 658 689Q706 689 754 692V664Z" />
<glyph unicode="W" glyph-name="W" horiz-adv-x="944" d="M980 664L960 662Q927 659 917 631L746 124Q735 92 715 18L708 -8H657Q635 95 618 154L506 546L282 102Q252 42 232 -8H182Q180 73 174 158L142 588Q139 631 130 644T89 662L71 664V692Q126 689 182 689Q243
689 303 692V664L266 662Q218 659 221 616L252 132L476 588L528 700H546L704 128L851 590Q860 617 860 639T819 662L780 664L785 692Q833 689 883 689Q932 689 980 692V664Z" />
<glyph unicode="X" glyph-name="X" horiz-adv-x="722" d="M684 -3Q618 0 551 0Q484 0 416 -3V25Q448 28 470 29Q490 31 496 32T502 40Q502 52 488 80L369 306L187 75Q177 62 177 50Q177 34 232 28L264 25V-3Q206 0 145 0Q83 0 20 -3V25L48 28Q87 33 110 61L348
343L202 613Q187 641 172 650T121 662L95 664V692Q161 689 228 689T361 692V664L324 662Q281 659 281 642Q281 632 295 604L399 405L560 601Q583 629 583 643Q583 659 538 662L505 664V692Q562 689 620 689Q677 689 734 692V664L706 662Q686 660 675 653T641 620L420
368L591 61Q602 43 615 36T659 27L684 25V-3Z" />
<glyph unicode="Y" glyph-name="Y" horiz-adv-x="667" d="M669 626Q625 618 589 593T510 512Q455 443 412 366T362 246L336 78Q334 68 334 57Q334 42 342 36T370 28L419 25L416 -3Q354 0 293 0Q223 0 154 -3L158 25L206 28Q236 30 244 43T264 125L286 257Q286
269 264 348T224 477Q193 561 164 598T100 635Q86 635 55 623L52 647L131 705Q200 704 245 622T346 310Q388 421 474 536Q529 611 574 647T675 697L669 626Z" />
<glyph unicode="Z" glyph-name="Z" horiz-adv-x="667" d="M583 -3Q349 0 261 0L20 -3V19L522 652H342Q235 652 162 639L156 619Q139 565 135 533H109Q120 633 120 691L238 692Q356 689 475 689Q556 689 637 692V672L133 39H414Q476 39 541 52Q561 103 573 142L580
164H606Q586 58 583 -3Z" />
<glyph unicode="[" glyph-name="bracketleft" horiz-adv-x="333" d="M213 -72L206 -100L112 -97L18 -100L16 -95L67 190Q128 552 144 729L152 733Q210 731 239 731L326 733V705L238 698Q228 697 225 692T217 667L201 582L160 329L109 -14Q103 -33 106 -48T134
-65L213 -72Z" />
<glyph unicode="\" glyph-name="backslash" horiz-adv-x="606" d="M513 0H453L81 733H141L513 0Z" />
<glyph unicode="]" glyph-name="bracketright" horiz-adv-x="333" d="M187 -96L179 -100L93 -98L7 -100V-72L95 -65Q105 -64 108 -59T116 -34L132 51L198 473L210 557Q211 562 219 608T227 677Q227 695 199 698L120 705L125 733L219 730L313 733L315 728L264 443Q204
86 187 -96Z" />
<glyph unicode="^" glyph-name="asciicircum" horiz-adv-x="606" d="M554 283H493L303 627L112 283H51L270 689H336L554 283Z" />
<glyph unicode="_" glyph-name="underscore" horiz-adv-x="500" d="M500 -125H0V-75H500V-125Z" />
<glyph unicode="`" glyph-name="grave" horiz-adv-x="333" d="M357 518H323L197 619Q175 636 182 656Q187 668 201 677T231 687T258 669L357 518Z" />
<glyph unicode="a" glyph-name="a" horiz-adv-x="444" d="M406 85Q290 -11 260 -11Q236 -11 236 26Q236 50 242 77L271 204Q193 94 133 42Q72 -11 38 -11Q24 -11 14 11T4 66Q4 126 25 206T79 354Q98 391 125 416T199 464Q236 482 274 482Q310 482 359 463L392
481L402 472L310 93Q309 90 309 83Q309 59 324 59Q343 59 386 95Q388 97 399 106L406 85ZM319 414Q265 433 234 433Q197 433 176 417T137 357Q111 295 94 221T76 99Q76 59 94 59Q119 59 161 100T245 204Q290 274 319 414Z" />
<glyph unicode="b" glyph-name="b" horiz-adv-x="463" d="M433 376Q433 277 388 184T271 39Q202 -11 140 -11Q99 -11 68 10T37 61Q37 68 38 71L139 622Q141 634 141 646Q141 670 107 670H59L63 691Q157 700 223 733L235 722L149 324Q195 383 225 411T295 460Q339
482 377 482Q401 482 412 468Q433 442 433 376ZM361 352Q361 424 322 424Q300 424 267 406T208 361Q151 301 125 191Q112 138 112 101Q112 36 183 36Q262 36 310 137Q361 248 361 352Z" />
<glyph unicode="c" glyph-name="c" horiz-adv-x="407" d="M354 95L304 54Q225 -11 147 -11Q25 -11 25 136Q25 216 51 287T120 397T211 458T293 482Q352 482 389 458Q376 421 365 330H342V390Q342 408 319 420T261 433Q213 433 183 407Q147 378 124 309T101 159Q101
40 186 40Q234 40 331 105L346 115L354 95Z" />
<glyph unicode="d" glyph-name="d" horiz-adv-x="500" d="M456 88L375 28Q322 -11 300 -11Q274 -11 274 24Q274 62 290 126L313 217Q263 142 232 104T159 33Q104 -11 61 -11Q17 -11 17 86Q17 149 31 214T68 323Q103 388 164 435T277 482Q312 482 359 468L387 622Q389
636 389 646Q389 670 355 670H307L311 691Q405 700 471 733L483 722L357 128Q349 89 349 82Q349 59 363 59Q378 59 402 76L446 107L456 88ZM349 410Q304 433 243 433Q204 433 184 418Q147 390 118 292T89 98Q89 59 114 59Q128 59 155 75T208 116Q308 212 337 351L349
410Z" />
<glyph unicode="e" glyph-name="e" horiz-adv-x="389" d="M336 92Q266 36 220 13T131 -11Q77 -11 46 21T15 112Q15 164 34 239T76 351Q106 399 173 440T290 482Q328 482 351 461T374 404Q374 314 250 259Q203 239 181 234L99 214Q91 175 91 134Q91 88 111 62T167
36Q223 36 304 94L328 111L336 92ZM300 388Q300 412 287 426T252 440Q209 440 176 409Q137 372 113 274L104 237Q168 251 213 272Q252 291 276 323T300 388Z" />
<glyph unicode="f" glyph-name="f" horiz-adv-x="278" d="M413 720L408 705L385 638L375 634Q351 673 303 673Q236 673 213 549L192 437H208Q268 437 292 444L299 446L303 439Q293 415 286 383H182Q179 364 172 334T163 295Q107 29 80 -57T7 -198Q-22 -233 -59
-254T-127 -276Q-148 -276 -162 -268Q-149 -244 -139 -188L-125 -184Q-103 -213 -73 -213Q-18 -213 11 -123Q46 -14 100 327L109 383H28L33 405Q72 419 119 442L134 521Q149 600 179 630Q196 648 243 683T308 726Q322 733 343 733Q385 733 413 720Z" />
<glyph unicode="g" glyph-name="g" horiz-adv-x="500" d="M498 427L489 382Q458 378 439 378H405L406 375Q409 360 409 342Q409 275 361 220T240 146Q239 145 239 144T237 141T234 138Q213 111 213 100Q213 72 260 35L320 -14Q384 -66 384 -121Q384 -183 312 -229T142
-276Q60 -276 12 -244T-37 -159Q-37 -96 16 -52Q62 -13 160 19Q139 37 139 52Q139 74 166 99L207 137Q196 136 177 136Q119 136 87 168T55 259Q55 366 140 430Q209 482 275 482Q308 482 342 469Q373 457 393 424Q459 424 495 433L498 427ZM318 -154Q318 -109 253
-58L176 1Q110 -18 77 -45Q27 -87 27 -145Q27 -191 65 -219T166 -248T273 -221T318 -154ZM337 341Q337 448 250 448Q195 448 161 404T126 288Q126 168 219 168Q272 168 304 216T337 341Z" />
<glyph unicode="h" glyph-name="h" horiz-adv-x="500" d="M471 85Q398 30 365 11T311 -9Q281 -9 281 30Q281 55 294 107L345 303Q360 358 360 392Q360 414 338 414Q306 414 244 356T148 236Q108 162 86 7L17 -9L10 2Q51 125 98 388L140 622Q142 636 142 646Q142
670 108 670H60L64 691Q158 700 224 733L236 722L138 265L158 290Q219 365 256 396Q358 482 414 482Q443 482 443 446Q443 420 432 372L368 116Q361 90 361 76Q361 56 374 56Q389 56 435 86L461 103L471 85Z" />
<glyph unicode="i" glyph-name="i" horiz-adv-x="278" d="M241 85Q168 31 134 11T81 -9Q51 -9 51 30Q51 61 64 107L130 347Q138 377 138 391Q138 412 121 412Q108 412 73 389L41 368L34 388L62 408Q166 482 196 482Q221 482 221 456Q221 446 215 420L138 116Q131
90 131 76Q131 56 144 56Q160 56 205 86L231 103L241 85ZM264 616Q264 587 249 568T210 549Q191 549 181 560T170 590Q170 616 188 636T228 657Q244 657 254 646T264 616Z" />
<glyph unicode="j" glyph-name="j" horiz-adv-x="278" d="M222 420L146 70Q109 -97 82 -158Q28 -276 -32 -276Q-56 -276 -70 -269L-62 -212Q-30 -231 -9 -231Q20 -231 38 -144L138 351Q145 381 145 391T140 407T127 414Q118 414 101 403T80 389L48 368L41 388L69
408Q173 482 203 482Q228 482 228 457Q228 446 222 420ZM271 616Q271 587 256 568T217 549Q198 549 188 560T177 590Q177 616 195 636T235 657Q251 657 261 646T271 616Z" />
<glyph unicode="k" glyph-name="k" horiz-adv-x="444" d="M427 67L381 35Q319 -9 300 -9T254 50T174 259Q121 206 107 132L84 8L17 -9L8 1Q77 277 90 354L138 622Q140 636 140 646Q140 670 106 670H58L62 691Q156 700 222 733L234 722L127 230Q221 362 286 422T401
482Q422 482 449 473L432 410Q407 416 396 416Q325 416 239 330L225 316Q274 160 321 75Q333 52 347 52Q358 52 376 62L419 86L427 67Z" />
<glyph unicode="l" glyph-name="l" horiz-adv-x="278" d="M226 85Q153 31 119 11T66 -9Q36 -9 36 30Q36 61 55 132L151 600Q157 636 157 648Q157 670 123 670H75L79 691Q173 700 239 733L251 722L122 113Q116 89 116 76Q116 56 129 56Q145 56 190 86L216 103L226 85Z" />
<glyph unicode="m" glyph-name="m" horiz-adv-x="778" d="M740 85Q667 30 634 11T580 -9Q550 -9 550 31Q550 62 563 107L606 264Q631 355 631 389Q631 414 618 414Q568 414 481 318Q412 242 387 113L366 6L297 -9L292 2L308 69Q371 332 371 393Q371 414 360 414Q314
414 245 338Q204 293 181 242T139 108L117 6L49 -9L46 2Q77 109 102 230T128 389Q128 414 110 414Q100 414 63 389L31 368L24 388L52 408Q155 482 185 482Q208 482 208 451Q208 432 202 408L169 275Q217 340 240 366T298 418Q382 482 429 482Q455 482 455 451Q455
444 448 409L418 272Q455 323 486 355T565 421Q652 482 693 482Q719 482 719 454Q719 443 712 413L637 116Q630 87 630 76Q630 56 643 56Q658 56 704 86L730 103L740 85Z" />
<glyph unicode="n" glyph-name="n" horiz-adv-x="556" d="M514 85Q441 30 408 11T354 -9Q324 -9 324 31Q324 54 337 107L389 319Q400 363 400 390Q400 414 383 414Q349 414 300 373T209 268Q175 216 156 159T123 8Q97 3 53 -9L46 2Q77 109 102 230T128 389Q128
414 110 414Q100 414 63 389L31 368L24 388L52 408Q156 482 185 482Q208 482 208 449Q208 435 202 408L164 247Q233 344 282 389Q326 430 373 456T452 482T483 446Q483 418 472 372L406 96Q404 88 404 76Q404 56 417 56Q432 56 478 86L504 103L514 85Z" />
<glyph unicode="o" glyph-name="o" horiz-adv-x="444" d="M411 331Q411 255 381 178T305 57Q232 -11 145 -11Q83 -11 50 31T17 152Q17 244 49 317T143 433Q212 482 278 482Q340 482 375 442T411 331ZM335 315Q335 444 241 444Q201 444 181 427Q144 397 119 317T93
151Q93 92 117 60T185 27Q232 27 260 60Q293 100 314 171T335 315Z" />
<glyph unicode="p" glyph-name="p" horiz-adv-x="500" d="M465 371Q465 315 443 243T390 125Q358 78 288 34T176 -11Q156 -11 124 0L115 3L73 -259Q32 -265 0 -276L-7 -270L1 -233L50 8L108 351Q112 371 112 389Q112 412 95 412Q83 412 47 389L15 368L8 388L36
408Q139 482 169 482Q191 482 191 452Q191 436 186 408L162 289Q206 362 259 409Q343 482 406 482Q433 482 449 452T465 371ZM393 356Q393 424 355 424Q293 424 227 343T143 165L125 59Q162 36 207 36Q270 36 300 80Q340 137 366 216T393 356Z" />
<glyph unicode="q" glyph-name="q" horiz-adv-x="463" d="M432 474Q419 434 405 356L319 -100Q307 -168 300 -259Q261 -264 214 -276L205 -262Q226 -239 232 -205L308 209Q251 108 141 25L133 19Q93 -11 60 -11Q24 -11 24 78Q24 155 48 247T103 374Q142 419 205
457Q246 482 284 482Q324 482 385 458L418 480L432 474ZM351 406Q289 433 254 433Q200 433 181 409Q150 372 123 279T96 113Q96 59 118 59T180 90T260 170Q314 237 330 311L351 406Z" />
<glyph unicode="r" glyph-name="r" horiz-adv-x="389" d="M368 365H354Q339 384 318 384Q285 384 235 319Q175 241 150 126L124 6Q80 -2 57 -9L47 -2Q77 93 103 219T130 390Q130 412 113 412Q101 412 65 389L33 368L26 388L54 408Q157 482 187 482Q210 482 210
450Q210 435 198 382L172 256Q194 303 266 407Q319 482 364 482Q371 482 384 476Q372 414 368 365Z" />
<glyph unicode="s" glyph-name="s" horiz-adv-x="389" d="M334 174Q334 103 262 47Q188 -11 116 -11Q63 -11 9 16Q24 80 31 148H56V64Q97 29 150 29T235 58T267 138Q267 168 254 182T207 203L144 215Q47 234 47 316Q47 366 84 404Q160 482 245 482Q290 482 345
455Q332 395 326 342H303V397Q291 417 265 429T208 442Q165 442 136 415T106 348Q106 317 123 302T185 279L228 271Q284 261 309 238T334 174Z" />
<glyph unicode="t" glyph-name="t" horiz-adv-x="333" d="M265 99Q256 92 250 87T234 74Q174 26 143 9T86 -9Q56 -9 56 31Q56 42 69 107L125 390H41L43 403Q68 410 131 440L156 610Q207 630 234 646L245 631Q222 561 200 434Q253 434 310 440L299 390H192L179
328Q136 123 136 76Q136 56 149 56Q167 56 210 86L255 117L265 99Z" />
<glyph unicode="u" glyph-name="u" horiz-adv-x="556" d="M512 85Q437 29 404 9T352 -11Q322 -11 322 31Q322 58 333 97L370 239Q307 136 228 63T102 -11Q87 -11 77 0T67 29Q67 57 71 77L134 374Q136 384 136 392Q136 412 119 412Q106 412 71 389L39 368L32 388L60
408Q163 482 193 482Q215 482 215 451Q215 435 210 408L153 137Q146 101 146 85Q146 59 159 59Q190 59 242 107T339 225Q384 296 407 414L417 465L485 482L492 473L408 116Q402 92 402 76Q402 59 415 59Q434 59 476 86L502 103L512 85Z" />
<glyph unicode="v" glyph-name="v" horiz-adv-x="500" d="M477 384Q477 316 438 227Q389 119 312 48Q246 -11 186 -11Q138 -11 107 26T76 121Q76 196 111 265T229 424Q194 420 166 420Q157 420 139 421T111 422Q72 422 60 394L43 352H21Q40 434 59 470Q77 478
91 477Q187 470 214 470Q248 470 275 482L285 464Q212 373 180 299T148 146Q148 97 169 68T228 39Q294 39 353 139T413 350Q413 413 370 413Q356 413 343 404L332 423L382 470Q394 482 415 482Q442 482 459 455T477 384Z" />
<glyph unicode="w" glyph-name="w" horiz-adv-x="722" d="M699 384Q699 316 660 227Q613 124 543 57T412 -11Q378 -11 358 18T338 95Q338 128 350 187Q294 79 251 34T160 -11Q120 -11 96 26T72 126Q72 190 100 249T196 388L226 424Q193 420 167 420Q158 420 139
421T111 422Q72 422 60 394L43 352H21Q40 434 59 470Q77 478 91 477Q187 470 214 470Q248 470 275 482L285 464Q211 380 178 303T145 136Q145 92 161 66T203 39Q249 39 311 155Q350 227 366 311L395 460L469 482L476 474L424 290Q403 215 403 134Q403 93 417 66T453
39Q494 39 537 86T607 206T635 350Q635 413 592 413Q578 413 565 404L554 423L604 470Q616 482 637 482Q664 482 681 455T699 384Z" />
<glyph unicode="x" glyph-name="x" horiz-adv-x="500" d="M449 79L400 35Q349 -11 314 -11Q262 -11 242 113L231 182L155 65Q105 -11 52 -11Q31 -11 9 1Q10 4 11 10T13 23Q21 66 21 88L41 91L52 63Q56 54 80 54Q121 54 185 153L225 215L214 277Q190 416 142 416Q115
416 73 368L56 378L114 461Q129 482 171 482Q215 482 237 452T269 347L275 299L312 354Q358 423 391 452T454 482Q467 482 484 472L469 387L455 383Q447 406 422 406Q399 406 376 387T317 318L282 269L300 168Q309 117 325 83Q340 53 363 53T440 98L449 79Z" />
<glyph unicode="y" glyph-name="y" horiz-adv-x="500" d="M490 473L349 33Q305 -106 229 -191T74 -276Q40 -276 16 -253T-8 -198Q-8 -187 -7 -180L41 -146L51 -150Q49 -168 49 -172Q49 -198 67 -216T111 -234Q164 -234 204 -176T282 16L331 187Q275 102 219 46T135
-11Q116 -11 104 9T92 60L93 100L110 343Q114 410 89 410Q79 410 64 398L14 368L3 386L85 442Q143 482 160 482Q184 482 184 419Q184 384 180 322L165 128Q160 67 184 67Q200 67 232 95T290 162Q349 250 370 331L405 463Q436 466 479 482L490 473Z" />
<glyph unicode="z" glyph-name="z" horiz-adv-x="444" d="M402 142Q383 60 372 -1Q336 -11 322 -11Q290 -11 204 9Q136 26 99 26Q48 26 8 -6L-1 21L352 421Q307 398 259 398Q227 398 178 408Q153 413 133 413Q115 413 94 408L64 350H43L75 472Q109 482 136 482Q157
482 216 466Q294 445 350 445Q370 445 384 459L407 482L416 473L410 441L71 59Q121 80 166 80Q195 80 252 68Q300 57 319 57Q348 57 358 82L380 142H402Z" />
<glyph unicode="{" glyph-name="braceleft" horiz-adv-x="333" d="M175 -100Q107 -99 80 -87Q40 -69 40 -10Q40 14 45 46L72 202Q76 223 76 247Q76 275 63 289T15 315Q61 328 82 352T111 427L140 599Q153 676 191 704T319 733Q271 721 248 695T215 613L185 441Q175
380 153 354T79 315Q116 304 131 288T146 241Q146 216 140 182L112 20Q109 0 109 -17Q109 -54 123 -72T175 -100Z" />
<glyph unicode="|" glyph-name="bar" horiz-adv-x="606" d="M331 -100H275V733H331V-100Z" />
<glyph unicode="}" glyph-name="braceright" horiz-adv-x="333" d="M318 318Q272 305 251 281T222 206L193 34Q180 -43 142 -71T14 -100Q62 -88 85 -62T118 20L148 192Q158 253 180 279T254 318Q217 328 202 345T187 392Q187 416 193 451L221 613Q224 631 224
650Q224 687 210 705T158 733Q226 732 253 720Q293 702 293 642Q293 619 288 587L261 431Q257 410 257 385Q257 358 270 343T318 318Z" />
<glyph unicode="~" glyph-name="asciitilde" horiz-adv-x="606" d="M555 301Q493 188 417 188Q384 188 287 229Q239 249 224 254T191 259Q161 259 138 240T85 169L51 196Q88 261 120 288T190 316Q229 316 318 277Q393 244 416 244Q474 244 521 328L555 301Z" />
<glyph unicode="&#xa0;" glyph-name="uni00A0" horiz-adv-x="333" />
<glyph unicode="&#xa1;" glyph-name="exclamdown" horiz-adv-x="333" d="M338 423Q338 394 321 374T278 353Q259 353 246 367T233 401Q233 429 251 449T294 470Q314 470 326 458T338 423ZM218 -245L133 -271L122 -262L245 254L275 271L281 268L260 114L225 -174L218
-245Z" />
<glyph unicode="&#xa2;" glyph-name="cent" horiz-adv-x="500" d="M386 95L326 46Q257 -9 163 -11L129 -96H97L132 -2Q109 5 98 14T75 45Q56 83 56 140Q56 222 88 300T170 413Q254 472 316 480L343 551H376L349 480Q386 480 418 458Q400 376 397 330H374V394Q374
411 330 427L184 45Q199 40 210 40Q279 40 379 115L386 95ZM297 432Q291 433 283 433Q255 433 229 419T189 382Q169 351 150 273T130 149Q130 96 157 64L297 432Z" />
<glyph unicode="&#xa3;" glyph-name="sterling" horiz-adv-x="500" d="M477 159L441 1Q417 -14 382 -14Q356 -14 230 11L225 12L219 13L213 14Q146 26 116 26Q95 26 87 24T64 10Q45 -5 23 -18Q2 -9 2 27Q59 57 84 114T126 299L129 322H34L41 357H135Q153 463 176
523T243 632Q310 708 385 708Q434 708 479 680Q461 627 460 558H437V612Q437 632 411 647T349 663Q273 663 255 569L250 544L219 400L209 357H351L344 322H201Q172 208 149 154T91 64Q143 79 176 79Q196 79 236 74L295 66Q321 62 339 62H369Q389 62 395 63Q419
66 431 99L453 159H477Z" />
<glyph unicode="&#xa4;" glyph-name="currency" horiz-adv-x="500" d="M486 149L455 118L400 171Q330 115 250 115Q169 115 100 171L45 118L14 149L68 203Q17 269 17 346Q17 429 70 489L14 545L45 577L102 521Q166 575 250 575Q333 575 398 521L455 577L486 545L430
489Q483 427 483 346Q483 271 432 203L486 149ZM431 271T431 346T379 472T248 523Q173 523 121 471T69 345T121 219T250 167T378 219Z" />
<glyph unicode="&#xa5;" glyph-name="yen" horiz-adv-x="500" d="M508 621Q470 612 441 580T362 467L356 457Q336 424 321 387L302 344H398L392 310H290Q280 287 275 237H386L380 203H270L254 93Q251 69 251 58Q251 42 258 36T282 28L323 25L321 -3H298L216 0L144
-2L98 -3L101 25L142 28Q168 29 174 43Q179 50 192 125L205 203H90L96 237H210Q212 248 212 259Q212 278 205 310H106L112 344H196L187 386Q158 518 132 574T71 630Q59 630 35 618V642Q69 671 96 699Q146 701 184 614T261 319Q332 498 391 585T512 691L508 621Z"
/>
<glyph unicode="&#xa6;" glyph-name="brokenbar" horiz-adv-x="606" d="M331 400H275V733H331V400ZM331 -100H275V233H331V-100Z" />
<glyph unicode="&#xa7;" glyph-name="section" horiz-adv-x="500" d="M446 252Q446 161 339 95Q368 69 379 48T390 -3Q390 -84 312 -155Q243 -220 159 -220Q76 -220 14 -168L47 -27L71 -29L65 -115Q116 -174 191 -174Q250 -174 290 -137T330 -44Q330 -7 310 18T236
72L185 100Q109 142 79 176T49 255Q49 301 72 334T158 413Q117 458 117 497Q117 573 191 644Q254 706 336 706Q407 706 463 666L432 537H407L412 617Q368 661 304 661Q249 661 212 627T174 543Q174 490 220 461L343 385Q403 348 420 327Q446 295 446 252ZM384 217Q384
250 364 275T296 329L177 399Q112 345 112 288Q112 228 202 177L318 111Q354 140 369 164T384 217Z" />
<glyph unicode="&#xa8;" glyph-name="dieresis" horiz-adv-x="333" d="M239 616Q239 587 224 568T185 549Q166 549 156 560T145 590Q145 616 163 636T203 657Q219 657 229 646T239 616ZM399 616Q399 587 384 568T345 549Q326 549 316 560T305 590Q305 616 323
636T363 657Q379 657 389 646T399 616Z" />
<glyph unicode="&#xa9;" glyph-name="copyright" horiz-adv-x="747" d="M718 466T718 324T618 82T374 -19Q232 -19 132 81T31 324Q31 467 131 567T374 668T617 567ZM682 324Q682 452 592 542T374 632Q247 632 157 542T67 324T156 107T374 17T592 107T682 324ZM561
503Q550 469 545 417H522L521 465Q476 491 415 491Q348 491 307 453Q251 402 253 305Q255 233 291 195T397 157Q432 157 460 166T532 199L542 193L535 169Q458 121 376 121Q286 121 237 165T186 291Q184 419 292 486Q359 527 439 527Q492 527 561 503Z" />
<glyph unicode="&#xaa;" glyph-name="ordfeminine" horiz-adv-x="333" d="M321 461Q245 404 227 404Q211 404 211 426Q211 435 215 457L231 535Q195 486 173 463T123 422Q94 404 82 404Q73 404 67 418T60 454Q60 499 81 564T125 650Q179 699 235 699Q259 699 291
688L312 699L319 694L260 471L259 463Q259 446 271 446Q281 446 303 463Q311 469 313 471L317 473L321 461ZM265 659Q228 670 208 670Q179 670 167 659T141 613L124 566Q107 520 107 468Q107 447 118 447Q135 447 169 479T221 543Q243 580 265 659ZM301 350H38L44
384H307L301 350Z" />
<glyph unicode="&#xab;" glyph-name="guillemotleft" horiz-adv-x="500" d="M228 85L208 70L57 251V267L251 440L270 424L133 256L228 85ZM395 85L375 70L224 251V267L418 440L437 424L300 256L395 85Z" />
<glyph unicode="&#xac;" glyph-name="logicalnot" horiz-adv-x="606" d="M566 164H510V308L40 309V365H566V164Z" />
<glyph unicode="&#xad;" glyph-name="uni00AD" horiz-adv-x="333" d="M304 281L286 223H19L38 281H304Z" />
<glyph unicode="&#xae;" glyph-name="registered" horiz-adv-x="747" d="M718 466T718 324T618 82T374 -19Q232 -19 132 81T31 324Q31 467 131 567T374 668T617 567ZM682 324Q682 452 592 542T374 632Q247 632 157 542T67 324T156 107T374 17T592 107T682 324ZM567
128Q548 131 529 131Q504 131 480 128L333 330L336 346H365Q405 346 436 372T466 433Q465 461 444 477T391 493Q377 493 351 489L348 476L343 454L296 186Q294 172 294 167Q294 155 311 153L341 151L339 128Q300 131 262 131Q222 131 181 128L184 151L210 153Q217
153 221 157T229 170T233 185T237 203L279 443Q284 474 283 484Q283 496 267 496L233 497L235 520Q266 518 328 518Q344 518 374 519T419 520Q467 520 499 501T533 443Q533 389 479 354Q450 335 410 328L522 179Q542 154 566 151L567 128Z" />
<glyph unicode="&#xaf;" glyph-name="overscore" horiz-adv-x="333" d="M429 629L418 578H117L128 629H429Z" />
<glyph unicode="0;" glyph-name="degree" horiz-adv-x="400" d="M390 537Q390 477 346 433T240 389Q178 389 134 433T90 540Q90 602 134 645T240 689T346 645T390 537ZM350 538Q350 584 318 616T239 649Q194 649 162 617T130 540Q130 494 162 462T240 429Q285
429 317 461T350 538Z" />
<glyph unicode="1;" glyph-name="plusminus" horiz-adv-x="606" d="M566 278H331V106H275V278H40V334H275V569H331V334H566V278ZM566 0H40V56H566V0Z" />
<glyph unicode="2;" glyph-name="two.superior" horiz-adv-x="300" d="M286 319L275 278L213 279Q203 279 177 279T145 280Q138 280 111 280T75 279L13 278V299Q137 421 181 482T226 593Q226 652 162 652Q132 652 114 639T73 591L55 601L94 673Q132 699 180
699Q230 699 260 673T290 601Q290 537 232 479L72 321H208Q243 321 282 330L286 319Z" />
<glyph unicode="3;" glyph-name="three.superior" horiz-adv-x="300" d="M304 421Q304 360 251 317T123 273Q69 273 28 299L46 386L68 383Q65 370 65 357Q65 329 85 314T142 299Q183 299 212 334T242 417Q242 452 221 471T159 491Q139 491 110 481L106 494L117
524H133L147 523Q186 520 213 546T241 610Q241 630 223 644T178 658Q141 658 114 624L101 607L86 617L124 680Q169 699 200 699Q244 699 271 677T299 621Q299 588 277 564T203 515Q258 504 281 483T304 421Z" />
<glyph unicode="4;" glyph-name="acute" horiz-adv-x="333" d="M382 656Q382 636 354 619L192 518H158L311 669Q329 687 344 687T370 678T382 656Z" />
<glyph unicode="5;" glyph-name="mu" horiz-adv-x="556" d="M513 85Q439 30 406 11T352 -9Q322 -9 322 31Q322 51 336 107L372 239Q339 183 282 118Q231 61 185 25T117 -11Q108 -11 99 -8L94 -7L85 -182Q83 -202 52 -214L22 -226L13 -218L137 374Q137 376
138 383T140 392Q140 400 135 406T123 412Q111 412 74 389L42 368L35 388L64 408Q167 482 197 482Q219 482 219 450Q219 433 214 408L154 137Q147 102 147 85Q147 59 160 59Q190 59 241 106T338 221Q386 295 411 414L421 465L489 482L496 473L409 116L408 110Q403
85 403 76Q403 59 416 59Q436 59 477 86L503 103L513 85Z" />
<glyph unicode="6;" glyph-name="paragraph" horiz-adv-x="500" d="M470 -224Q449 -224 404 -222T270 -221Q176 -222 133 -223T82 -224L87 -194H117Q148 -194 160 -180T180 -119L243 250Q180 259 133 298Q33 381 33 516Q33 602 78 647T209 692L410 689Q481
685 539 688T611 692L606 662H583Q544 662 530 649T507 592L382 -137Q377 -169 387 -181T432 -194H475L470 -224ZM304 -189L451 657H383L236 -189H304ZM249 288L312 652Q270 657 256 657Q198 657 171 617T143 493Q143 317 249 288Z" />
<glyph unicode="7;" glyph-name="middot" horiz-adv-x="250" d="M183 274T183 250T166 209T125 192T84 209T67 250T84 291T125 308T166 291Z" />
<glyph unicode="8;" glyph-name="cedilla" horiz-adv-x="333" d="M202 -132Q202 -170 169 -193T79 -216Q44 -216 -9 -196L8 -167Q53 -181 77 -181Q100 -181 115 -169T130 -136Q130 -119 117 -109T83 -98Q70 -98 57 -102L50 -104L41 -96L103 5H141L96 -64Q118
-62 120 -62Q158 -62 180 -81T202 -132Z" />
<glyph unicode="9;" glyph-name="one.superior" horiz-adv-x="300" d="M281 278L229 279Q224 279 200 279T171 280T143 280T113 279L61 278L66 302L115 308Q130 309 136 317T146 349L200 649Q177 638 170 637Q163 634 156 631T144 626T139 624L85 600L80 603L87
646Q146 658 194 675L263 699L273 693L269 679Q263 657 259 633L207 353Q205 343 205 333Q205 318 213 312T243 305L285 302L281 278Z" />
<glyph unicode="a;" glyph-name="ordmasculine" horiz-adv-x="333" d="M322 609Q322 525 271 465T149 404Q109 404 88 429T66 500Q66 583 115 641T235 699Q276 699 299 676T322 609ZM273 601Q273 676 212 676Q169 676 142 629T115 506Q115 427 175 427Q216
427 243 473Q273 528 273 601ZM280 350H36L42 384H286L280 350Z" />
<glyph unicode="b;" glyph-name="guillemotright" horiz-adv-x="500" d="M276 243L82 70L63 86L200 254L105 425L125 440L276 259V243ZM443 243L249 70L230 86L367 254L272 425L292 440L443 259V243Z" />
<glyph unicode="c;" glyph-name="onequarter" horiz-adv-x="750" d="M715 142L704 110Q683 113 670 113H627L620 85Q616 69 616 50Q616 26 637 25L691 22L687 -2H665Q653 -2 636 -1Q627 0 580 0Q532 0 524 -1L494 -2H472L475 22L526 25Q542 26 549 34T562
62L575 113H410V138L629 414L674 423L683 416L636 150H712L715 142ZM632 386L447 150H584L632 386ZM251 278L199 279Q194 279 170 279T141 280T113 280T83 279L31 278L36 302L85 308Q100 309 106 317T116 349L170 649Q147 638 140 637Q133 634 126 631T114 626T109
624L55 600L50 603L57 646Q116 658 164 675L233 699L243 693L239 679Q233 657 229 633L177 353Q175 343 175 333Q175 318 183 312T213 305L255 302L251 278ZM661 699L210 0H154L605 699H661Z" />
<glyph unicode="d;" glyph-name="onehalf" horiz-adv-x="750" d="M637 699L186 0H130L581 699H637ZM251 278L199 279Q194 279 170 279T141 280T113 280T83 279L31 278L36 302L85 308Q100 309 106 317T116 349L170 649Q147 638 140 637Q133 634 126 631T114
626T109 624L55 600L50 603L57 646Q116 658 164 675L233 699L243 693L239 679Q233 657 229 633L177 353Q175 343 175 333Q175 318 183 312T213 305L255 302L251 278ZM717 39L706 -2H680Q665 -2 644 -1Q634 0 576 0Q517 0 506 -1L470 -2H444V19Q568 141 612 202T657
313Q657 372 593 372Q563 372 545 359T504 311L486 321L525 393Q563 419 611 419Q661 419 691 393T721 321Q721 257 663 199L503 41H639Q674 41 713 50L717 39Z" />
<glyph unicode="e;" glyph-name="threequarters" horiz-adv-x="750" d="M311 421Q311 360 258 317T130 273Q76 273 35 299L53 386L75 383Q72 370 72 357Q72 329 92 314T149 299Q190 299 219 334T249 417Q249 452 228 471T166 491Q146 491 117 481L113 494L124
524H140L154 523Q193 520 220 546T248 610Q248 630 230 644T185 658Q148 658 121 624L108 607L93 617L131 680Q176 699 207 699Q251 699 278 677T306 621Q306 588 284 564T210 515Q265 504 288 483T311 421ZM661 699L210 0H154L605 699H661ZM715 142L704 110Q683
113 670 113H627L620 85Q616 69 616 50Q616 26 637 25L691 22L687 -2H665Q653 -2 636 -1Q627 0 580 0Q532 0 524 -1L494 -2H472L475 22L526 25Q542 26 549 34T562 62L575 113H410V138L629 414L674 423L683 416L636 150H712L715 142ZM632 386L447 150H584L632 386Z"
/>
<glyph unicode="f;" glyph-name="questiondown" horiz-adv-x="500" d="M466 -109L426 -207Q366 -244 311 -244Q241 -244 198 -207T154 -110Q154 -36 228 35L332 135Q382 182 382 212Q382 235 355 263L380 269Q418 245 418 206Q418 157 363 95L293 16Q236 -49
236 -100Q236 -137 264 -161T335 -185Q366 -185 385 -174T424 -133L444 -103L466 -109ZM467 423Q467 394 450 374T407 353Q388 353 375 367T362 401Q362 429 380 449T423 470Q443 470 455 458T467 423Z" />
<glyph unicode="0;" glyph-name="Agrave" horiz-adv-x="722" d="M677 -3Q617 0 555 0Q494 0 433 -3V25L477 28Q520 31 520 55Q520 59 518 77L491 277H245L143 102Q117 58 117 47Q117 40 126 35T148 28L200 25V-3Q148 0 93 0Q36 0 -19 -3V27L1 32Q27 38 45
54T89 112L462 705H508L595 80Q599 46 607 39T651 28L677 25V-3ZM486 313L449 601L270 313H486ZM604 748H567L421 830Q396 845 401 860Q404 870 419 877T451 885Q469 885 480 871L604 748Z" />
<glyph unicode="1;" glyph-name="Aacute" horiz-adv-x="722" d="M677 -3Q617 0 555 0Q494 0 433 -3V25L477 28Q520 31 520 55Q520 59 518 77L491 277H245L143 102Q117 58 117 47Q117 40 126 35T148 28L200 25V-3Q148 0 93 0Q36 0 -19 -3V27L1 32Q27 38 45
54T89 112L462 705H508L595 80Q599 46 607 39T651 28L677 25V-3ZM486 313L449 601L270 313H486ZM625 860Q624 845 593 830L419 748H382L549 871Q566 885 583 885Q599 885 612 878T625 860Z" />
<glyph unicode="2;" glyph-name="Acircumflex" horiz-adv-x="722" d="M677 -3Q617 0 555 0Q494 0 433 -3V25L477 28Q520 31 520 55Q520 59 518 77L491 277H245L143 102Q117 58 117 47Q117 40 126 35T148 28L200 25V-3Q148 0 93 0Q36 0 -19 -3V27L1 32Q27 38
45 54T89 112L462 705H508L595 80Q599 46 607 39T651 28L677 25V-3ZM486 313L449 601L270 313H486ZM635 749H595L508 834L359 749H317L487 886H540L635 749Z" />
<glyph unicode="3;" glyph-name="Atilde" horiz-adv-x="722" d="M677 -3Q617 0 555 0Q494 0 433 -3V25L477 28Q520 31 520 55Q520 59 518 77L491 277H245L143 102Q117 58 117 47Q117 40 126 35T148 28L200 25V-3Q148 0 93 0Q36 0 -19 -3V27L1 32Q27 38 45
54T89 112L462 705H508L595 80Q599 46 607 39T651 28L677 25V-3ZM486 313L449 601L270 313H486ZM669 869Q660 820 635 793T572 766Q549 766 508 782Q462 800 461 801Q439 810 423 810Q404 810 393 801T371 766H342Q357 821 380 845T440 869Q467 869 503 855L563
831Q575 826 590 826T615 835T641 869H669Z" />
<glyph unicode="4;" glyph-name="Adieresis" horiz-adv-x="722" d="M677 -3Q617 0 555 0Q494 0 433 -3V25L477 28Q520 31 520 55Q520 59 518 77L491 277H245L143 102Q117 58 117 47Q117 40 126 35T148 28L200 25V-3Q148 0 93 0Q36 0 -19 -3V27L1 32Q27 38
45 54T89 112L462 705H508L595 80Q599 46 607 39T651 28L677 25V-3ZM486 313L449 601L270 313H486ZM471 830Q471 801 456 782T417 763Q398 763 388 774T377 804Q377 830 395 850T435 871Q451 871 461 860T471 830ZM631 830Q631 801 616 782T577 763Q558 763 548
774T537 804Q537 830 555 850T595 871Q611 871 621 860T631 830Z" />
<glyph unicode="5;" glyph-name="Aring" horiz-adv-x="722" d="M677 -3Q617 0 555 0Q494 0 433 -3V25L477 28Q520 31 520 55Q520 59 518 77L491 277H245L143 102Q117 58 117 47Q117 40 126 35T148 28L200 25V-3Q148 0 93 0Q36 0 -19 -3V27L1 32Q27 38 45 54T89
112L462 705H508L595 80Q599 46 607 39T651 28L677 25V-3ZM486 313L449 601L270 313H486ZM609 837Q609 795 580 766T509 737Q467 737 438 766T409 837T438 908T510 937Q551 937 580 908T609 837ZM571 808T571 837T554 883T509 901T464 884T447 837T464 791T509
773T554 790Z" />
<glyph unicode="6;" glyph-name="AE" horiz-adv-x="941" d="M846 0Q832 0 822 -1T796 -2T742 -3Q707 -3 637 -2T532 0Q458 0 384 -3L389 23Q421 28 432 36T448 66L486 279H264L156 98Q136 62 136 54Q136 27 197 27H221V-3Q154 0 114 0L-4 -3V27L30 32Q48 35
66 62L434 607Q447 627 447 643Q447 650 436 656T410 662H344V692Q466 689 587 689Q628 689 710 690T833 692Q870 692 902 689Q885 632 881 537H857L849 626Q848 637 822 643T755 650L679 648L632 646Q627 636 623 614L581 376H598L817 382L821 375L802 330Q793
330 785 331T751 333T670 334H573L530 81Q528 69 528 46Q614 39 640 39Q751 39 787 48Q803 52 811 63T828 101L844 161H871L866 135Q853 62 850 36L846 0ZM492 319L546 655H532Q518 655 495 620L290 319H492Z" />
<glyph unicode="7;" glyph-name="Ccedilla" horiz-adv-x="667" d="M610 103L600 67Q532 21 474 2T343 -18H338H335L303 -64Q319 -62 326 -62Q365 -62 387 -80T409 -132Q409 -170 376 -193T286 -216Q251 -216 198 -196L215 -167Q258 -181 284 -181Q307 -181
322 -169T337 -136Q337 -119 324 -109T290 -98Q280 -98 257 -104L248 -96L299 -16L296 -15Q174 -3 110 74T45 284Q45 514 222 634Q329 706 456 706Q542 706 651 665Q631 599 624 519H597V603Q519 653 418 653Q298 653 228 581Q133 484 133 309Q133 175 195 105T376
35Q435 35 482 51T600 110L610 103Z" />
<glyph unicode="8;" glyph-name="Egrave" horiz-adv-x="611" d="M514 0Q509 0 485 -1T409 -3Q372 -3 297 -2T184 0Q106 0 30 -3L35 23Q68 28 80 34T95 55L182 559Q191 607 191 636Q191 661 156 662L102 664L105 692Q185 689 265 689Q305 689 383 690T501 692Q537
692 570 689Q553 632 549 537H525L517 626Q515 650 410 650Q369 649 280 646Q275 636 271 614L229 376H266L485 382L489 375L470 330Q461 330 453 331T419 333T338 334H221L178 81Q176 69 176 46Q250 39 307 39Q419 39 457 49Q473 53 481 64T496 101L512 161H539Q523
81 518 36L514 0ZM505 748H468L322 830Q297 845 302 860Q305 870 320 877T352 885Q370 885 381 871L505 748Z" />
<glyph unicode="9;" glyph-name="Eacute" horiz-adv-x="611" d="M514 0Q509 0 485 -1T409 -3Q372 -3 297 -2T184 0Q106 0 30 -3L35 23Q68 28 80 34T95 55L182 559Q191 607 191 636Q191 661 156 662L102 664L105 692Q185 689 265 689Q305 689 383 690T501 692Q537
692 570 689Q553 632 549 537H525L517 626Q515 650 410 650Q369 649 280 646Q275 636 271 614L229 376H266L485 382L489 375L470 330Q461 330 453 331T419 333T338 334H221L178 81Q176 69 176 46Q250 39 307 39Q419 39 457 49Q473 53 481 64T496 101L512 161H539Q523
81 518 36L514 0ZM526 860Q525 845 494 830L320 748H283L450 871Q467 885 484 885Q500 885 513 878T526 860Z" />
<glyph unicode="a;" glyph-name="Ecircumflex" horiz-adv-x="611" d="M514 0Q509 0 485 -1T409 -3Q372 -3 297 -2T184 0Q106 0 30 -3L35 23Q68 28 80 34T95 55L182 559Q191 607 191 636Q191 661 156 662L102 664L105 692Q185 689 265 689Q305 689 383 690T501
692Q537 692 570 689Q553 632 549 537H525L517 626Q515 650 410 650Q369 649 280 646Q275 636 271 614L229 376H266L485 382L489 375L470 330Q461 330 453 331T419 333T338 334H221L178 81Q176 69 176 46Q250 39 307 39Q419 39 457 49Q473 53 481 64T496 101L512
161H539Q523 81 518 36L514 0ZM536 749H496L409 834L260 749H218L388 886H441L536 749Z" />
<glyph unicode="b;" glyph-name="Edieresis" horiz-adv-x="611" d="M514 0Q509 0 485 -1T409 -3Q372 -3 297 -2T184 0Q106 0 30 -3L35 23Q68 28 80 34T95 55L182 559Q191 607 191 636Q191 661 156 662L102 664L105 692Q185 689 265 689Q305 689 383 690T501
692Q537 692 570 689Q553 632 549 537H525L517 626Q515 650 410 650Q369 649 280 646Q275 636 271 614L229 376H266L485 382L489 375L470 330Q461 330 453 331T419 333T338 334H221L178 81Q176 69 176 46Q250 39 307 39Q419 39 457 49Q473 53 481 64T496 101L512
161H539Q523 81 518 36L514 0ZM372 830Q372 801 357 782T318 763Q299 763 289 774T278 804Q278 830 296 850T336 871Q352 871 362 860T372 830ZM532 830Q532 801 517 782T478 763Q459 763 449 774T438 804Q438 830 456 850T496 871Q512 871 522 860T532 830Z" />
<glyph unicode="c;" glyph-name="Igrave" horiz-adv-x="333" d="M259 -3Q196 0 133 0T7 -3L10 25L46 28Q76 30 84 44T104 125L176 559Q185 608 185 636Q185 661 150 662L103 664L106 692Q174 689 242 689Q298 689 354 692L351 664L316 661Q287 659 279 651T265
613L176 78Q174 68 174 57Q174 42 182 36T210 28L262 25L259 -3ZM360 748H323L177 830Q152 845 157 860Q160 870 175 877T207 885Q225 885 236 871L360 748Z" />
<glyph unicode="d;" glyph-name="Iacute" horiz-adv-x="333" d="M259 -3Q196 0 133 0T7 -3L10 25L46 28Q76 30 84 44T104 125L176 559Q185 608 185 636Q185 661 150 662L103 664L106 692Q174 689 242 689Q298 689 354 692L351 664L316 661Q287 659 279 651T265
613L176 78Q174 68 174 57Q174 42 182 36T210 28L262 25L259 -3ZM381 860Q380 845 349 830L175 748H138L305 871Q322 885 339 885Q355 885 368 878T381 860Z" />
<glyph unicode="e;" glyph-name="Icircumflex" horiz-adv-x="333" d="M259 -3Q196 0 133 0T7 -3L10 25L46 28Q76 30 84 44T104 125L176 559Q185 608 185 636Q185 661 150 662L103 664L106 692Q174 689 242 689Q298 689 354 692L351 664L316 661Q287 659 279
651T265 613L176 78Q174 68 174 57Q174 42 182 36T210 28L262 25L259 -3ZM391 749H351L264 834L115 749H73L243 886H296L391 749Z" />
<glyph unicode="f;" glyph-name="Idieresis" horiz-adv-x="333" d="M259 -3Q196 0 133 0T7 -3L10 25L46 28Q76 30 84 44T104 125L176 559Q185 608 185 636Q185 661 150 662L103 664L106 692Q174 689 242 689Q298 689 354 692L351 664L316 661Q287 659 279
651T265 613L176 78Q174 68 174 57Q174 42 182 36T210 28L262 25L259 -3ZM227 830Q227 801 212 782T173 763Q154 763 144 774T133 804Q133 830 151 850T191 871Q207 871 217 860T227 830ZM387 830Q387 801 372 782T333 763Q314 763 304 774T293 804Q293 830 311
850T351 871Q367 871 377 860T387 830Z" />
<glyph unicode="&#xd0;" glyph-name="Eth" horiz-adv-x="778" d="M741 431Q741 306 674 200T489 34Q418 -3 316 -3Q312 -3 297 -3T270 -2L176 0H144H121L28 -3L33 23L41 25Q65 31 74 37T86 55L136 346H19L25 378H142L173 559Q182 615 182 635Q182 661 147 662L94
664L97 692L220 689L424 692Q580 692 650 642Q741 578 741 431ZM649 415Q649 539 585 597T384 655Q362 655 315 652Q303 652 290 651T268 650L222 378H409L403 346H216L172 93Q168 69 168 56Q262 41 329 41Q462 41 543 124Q649 233 649 415Z" />
<glyph unicode="&#xd1;" glyph-name="Ntilde" horiz-adv-x="778" d="M804 692L799 664L762 662Q742 661 734 654T719 625T702 542L608 -11H558L220 566L140 102Q137 86 137 72Q137 47 146 39T186 28L228 25L223 -3Q169 0 113 0Q58 0 2 -3L7 25L38 28Q65 30 74
42T92 102L180 576Q185 591 185 606T155 645Q136 660 105 662L70 664L75 692Q116 689 156 689T237 692L582 103L662 592Q667 624 667 638Q667 661 631 662L584 664L589 692Q642 689 694 689Q748 689 804 692ZM662 869Q653 820 628 793T565 766Q542 766 501 782Q455
800 454 801Q432 810 416 810Q397 810 386 801T364 766H335Q350 821 373 845T433 869Q460 869 496 855L556 831Q568 826 583 826T608 835T634 869H662Z" />
<glyph unicode="&#xd2;" glyph-name="Ograve" horiz-adv-x="778" d="M748 425Q748 306 693 203T544 42Q449 -18 323 -18Q191 -18 122 56T53 272Q53 460 169 583T464 706Q599 706 673 633T748 425ZM660 409Q660 575 563 632Q510 664 433 664Q320 664 250 593Q198
541 170 458T141 277Q141 152 196 88T360 24Q478 24 552 100Q603 153 631 234T660 409ZM583 748H546L400 830Q375 845 380 860Q383 870 398 877T430 885Q448 885 459 871L583 748Z" />
<glyph unicode="&#xd3;" glyph-name="Oacute" horiz-adv-x="778" d="M748 425Q748 306 693 203T544 42Q449 -18 323 -18Q191 -18 122 56T53 272Q53 460 169 583T464 706Q599 706 673 633T748 425ZM660 409Q660 575 563 632Q510 664 433 664Q320 664 250 593Q198
541 170 458T141 277Q141 152 196 88T360 24Q478 24 552 100Q603 153 631 234T660 409ZM604 860Q603 845 572 830L398 748H361L528 871Q545 885 562 885Q578 885 591 878T604 860Z" />
<glyph unicode="&#xd4;" glyph-name="Ocircumflex" horiz-adv-x="778" d="M748 425Q748 306 693 203T544 42Q449 -18 323 -18Q191 -18 122 56T53 272Q53 460 169 583T464 706Q599 706 673 633T748 425ZM660 409Q660 575 563 632Q510 664 433 664Q320 664 250 593Q198
541 170 458T141 277Q141 152 196 88T360 24Q478 24 552 100Q603 153 631 234T660 409ZM614 749H574L487 834L338 749H296L466 886H519L614 749Z" />
<glyph unicode="&#xd5;" glyph-name="Otilde" horiz-adv-x="778" d="M748 425Q748 306 693 203T544 42Q449 -18 323 -18Q191 -18 122 56T53 272Q53 460 169 583T464 706Q599 706 673 633T748 425ZM660 409Q660 575 563 632Q510 664 433 664Q320 664 250 593Q198
541 170 458T141 277Q141 152 196 88T360 24Q478 24 552 100Q603 153 631 234T660 409ZM648 869Q639 820 614 793T551 766Q528 766 487 782Q441 800 440 801Q418 810 402 810Q383 810 372 801T350 766H321Q336 821 359 845T419 869Q446 869 482 855L542 831Q554
826 569 826T594 835T620 869H648Z" />
<glyph unicode="&#xd6;" glyph-name="Odieresis" horiz-adv-x="778" d="M748 425Q748 306 693 203T544 42Q449 -18 323 -18Q191 -18 122 56T53 272Q53 460 169 583T464 706Q599 706 673 633T748 425ZM660 409Q660 575 563 632Q510 664 433 664Q320 664 250 593Q198
541 170 458T141 277Q141 152 196 88T360 24Q478 24 552 100Q603 153 631 234T660 409ZM450 830Q450 801 435 782T396 763Q377 763 367 774T356 804Q356 830 374 850T414 871Q430 871 440 860T450 830ZM610 830Q610 801 595 782T556 763Q537 763 527 774T516 804Q516
830 534 850T574 871Q590 871 600 860T610 830Z" />
<glyph unicode="&#xd7;" glyph-name="multiply" horiz-adv-x="606" d="M509 84L469 44L303 210L137 44L97 84L263 250L97 416L137 456L303 290L469 456L509 416L343 250L509 84Z" />
<glyph unicode="&#xd8;" glyph-name="Oslash" horiz-adv-x="778" d="M748 432Q748 239 628 111T329 -18Q213 -18 134 43L60 -39L32 -15L110 68Q79 113 66 159T53 273Q53 460 169 583T463 706Q576 706 661 643L733 721L762 695L688 616Q722 574 735 534T748 432ZM660
412Q660 500 624 567L189 97Q252 24 361 24Q478 24 552 100Q660 211 660 412ZM602 600Q563 635 525 649T433 664Q319 664 250 593Q198 540 170 457T141 275Q141 193 168 131L602 600Z" />
<glyph unicode="&#xd9;" glyph-name="Ugrave" horiz-adv-x="778" d="M709 25L704 -3Q662 0 619 0Q575 0 530 -3L525 2Q544 81 552 129Q513 84 484 61T409 15Q341 -19 276 -19Q192 -19 145 24T97 145Q97 173 103 206L167 581Q174 621 174 639Q174 652 167 656T140
662L88 664L91 692Q136 689 181 689Q225 689 270 692L182 215Q175 179 175 155Q175 101 212 70T314 39Q443 39 556 177L627 622Q630 643 623 652T593 662L545 664L548 692Q615 689 685 689Q741 689 798 692L795 664L759 661Q731 659 722 651T708 613L623 106Q617
68 617 50T649 29L709 25ZM574 748H537L391 830Q366 845 371 860Q374 870 389 877T421 885Q439 885 450 871L574 748Z" />
<glyph unicode="&#xda;" glyph-name="Uacute" horiz-adv-x="778" d="M709 25L704 -3Q662 0 619 0Q575 0 530 -3L525 2Q544 81 552 129Q513 84 484 61T409 15Q341 -19 276 -19Q192 -19 145 24T97 145Q97 173 103 206L167 581Q174 621 174 639Q174 652 167 656T140
662L88 664L91 692Q136 689 181 689Q225 689 270 692L182 215Q175 179 175 155Q175 101 212 70T314 39Q443 39 556 177L627 622Q630 643 623 652T593 662L545 664L548 692Q615 689 685 689Q741 689 798 692L795 664L759 661Q731 659 722 651T708 613L623 106Q617
68 617 50T649 29L709 25ZM595 860Q594 845 563 830L389 748H352L519 871Q536 885 553 885Q569 885 582 878T595 860Z" />
<glyph unicode="&#xdb;" glyph-name="Ucircumflex" horiz-adv-x="778" d="M709 25L704 -3Q662 0 619 0Q575 0 530 -3L525 2Q544 81 552 129Q513 84 484 61T409 15Q341 -19 276 -19Q192 -19 145 24T97 145Q97 173 103 206L167 581Q174 621 174 639Q174 652 167
656T140 662L88 664L91 692Q136 689 181 689Q225 689 270 692L182 215Q175 179 175 155Q175 101 212 70T314 39Q443 39 556 177L627 622Q630 643 623 652T593 662L545 664L548 692Q615 689 685 689Q741 689 798 692L795 664L759 661Q731 659 722 651T708 613L623
106Q617 68 617 50T649 29L709 25ZM605 749H565L478 834L329 749H287L457 886H510L605 749Z" />
<glyph unicode="&#xdc;" glyph-name="Udieresis" horiz-adv-x="778" d="M709 25L704 -3Q662 0 619 0Q575 0 530 -3L525 2Q544 81 552 129Q513 84 484 61T409 15Q341 -19 276 -19Q192 -19 145 24T97 145Q97 173 103 206L167 581Q174 621 174 639Q174 652 167 656T140
662L88 664L91 692Q136 689 181 689Q225 689 270 692L182 215Q175 179 175 155Q175 101 212 70T314 39Q443 39 556 177L627 622Q630 643 623 652T593 662L545 664L548 692Q615 689 685 689Q741 689 798 692L795 664L759 661Q731 659 722 651T708 613L623 106Q617
68 617 50T649 29L709 25ZM441 830Q441 801 426 782T387 763Q368 763 358 774T347 804Q347 830 365 850T405 871Q421 871 431 860T441 830ZM601 830Q601 801 586 782T547 763Q528 763 518 774T507 804Q507 830 525 850T565 871Q581 871 591 860T601 830Z" />
<glyph unicode="&#xdd;" glyph-name="Yacute" horiz-adv-x="667" d="M669 626Q625 618 589 593T510 512Q455 443 412 366T362 246L336 78Q334 68 334 57Q334 42 342 36T370 28L419 25L416 -3Q354 0 293 0Q223 0 154 -3L158 25L206 28Q236 30 244 43T264 125L286
257Q286 269 264 348T224 477Q193 561 164 598T100 635Q86 635 55 623L52 647L131 705Q200 704 245 622T346 310Q388 421 474 536Q529 611 574 647T675 697L669 626ZM544 860Q543 845 512 830L338 748H301L468 871Q485 885 502 885Q518 885 531 878T544 860Z" />
<glyph unicode="&#xde;" glyph-name="Thorn" horiz-adv-x="611" d="M570 386Q570 289 502 221T337 153Q290 153 247 174L243 206Q283 188 323 188Q398 188 440 233T482 361Q482 508 331 508Q308 508 259 500L253 476L244 432L186 93Q182 69 182 58Q182 29 218
28L283 25L280 -3L227 -2L141 0L51 -2L9 -3L13 25L54 28Q84 30 92 43T112 125L186 559Q195 615 195 635Q195 661 160 662L113 664L116 692L180 690L257 689L347 692H371L368 664L326 661Q298 659 289 651T275 613L262 542Q334 542 345 543Q367 544 394 544Q479
544 524 503T570 386Z" />
<glyph unicode="&#xdf;" glyph-name="germandbls" horiz-adv-x="500" d="M445 165Q445 106 386 45T269 -16Q234 -16 191 5Q207 51 212 112H232V56Q258 28 297 28Q333 28 356 53T380 119Q380 147 366 174L312 279Q295 313 295 332Q295 355 327 400Q332 406 340
418T353 437Q395 495 410 529T426 597Q426 635 402 660T340 685T274 663T230 601Q220 573 212 534T194 447T181 378L109 39Q72 -134 -3 -214Q-62 -276 -124 -276Q-145 -276 -160 -272Q-148 -238 -138 -189L-127 -187Q-101 -217 -74 -217Q-51 -217 -29 -198T5 -148Q24
-101 43 0L111 383H30L34 405L90 428Q122 441 123 449L138 530Q146 574 162 598T220 655Q264 688 313 710T394 733Q432 733 460 703T488 632T470 553T402 456Q375 424 366 407T357 372Q357 343 396 275L414 244Q445 191 445 165Z" />
<glyph unicode="&#xe0;" glyph-name="agrave" horiz-adv-x="444" d="M406 85Q290 -11 260 -11Q236 -11 236 26Q236 50 242 77L271 204Q193 94 133 42Q72 -11 38 -11Q24 -11 14 11T4 66Q4 126 25 206T79 354Q98 391 125 416T199 464Q236 482 274 482Q310 482 359
463L392 481L402 472L310 93Q309 90 309 83Q309 59 324 59Q343 59 386 95Q388 97 399 106L406 85ZM319 414Q265 433 234 433Q197 433 176 417T137 357Q111 295 94 221T76 99Q76 59 94 59Q119 59 161 100T245 204Q290 274 319 414ZM380 518H346L220 619Q198 636
205 656Q210 668 224 677T254 687T281 669L380 518Z" />
<glyph unicode="&#xe1;" glyph-name="aacute" horiz-adv-x="444" d="M406 85Q290 -11 260 -11Q236 -11 236 26Q236 50 242 77L271 204Q193 94 133 42Q72 -11 38 -11Q24 -11 14 11T4 66Q4 126 25 206T79 354Q98 391 125 416T199 464Q236 482 274 482Q310 482 359
463L392 481L402 472L310 93Q309 90 309 83Q309 59 324 59Q343 59 386 95Q388 97 399 106L406 85ZM319 414Q265 433 234 433Q197 433 176 417T137 357Q111 295 94 221T76 99Q76 59 94 59Q119 59 161 100T245 204Q290 274 319 414ZM404 656Q404 636 376 619L214
518H180L333 669Q351 687 366 687T392 678T404 656Z" />
<glyph unicode="&#xe2;" glyph-name="acircumflex" horiz-adv-x="444" d="M406 85Q290 -11 260 -11Q236 -11 236 26Q236 50 242 77L271 204Q193 94 133 42Q72 -11 38 -11Q24 -11 14 11T4 66Q4 126 25 206T79 354Q98 391 125 416T199 464Q236 482 274 482Q310 482
359 463L392 481L402 472L310 93Q309 90 309 83Q309 59 324 59Q343 59 386 95Q388 97 399 106L406 85ZM319 414Q265 433 234 433Q197 433 176 417T137 357Q111 295 94 221T76 99Q76 59 94 59Q119 59 161 100T245 204Q290 274 319 414ZM416 519H380L298 623L161
519H122L279 688H328L416 519Z" />
<glyph unicode="&#xe3;" glyph-name="atilde" horiz-adv-x="444" d="M406 85Q290 -11 260 -11Q236 -11 236 26Q236 50 242 77L271 204Q193 94 133 42Q72 -11 38 -11Q24 -11 14 11T4 66Q4 126 25 206T79 354Q98 391 125 416T199 464Q236 482 274 482Q310 482 359
463L392 481L402 472L310 93Q309 90 309 83Q309 59 324 59Q343 59 386 95Q388 97 399 106L406 85ZM319 414Q265 433 234 433Q197 433 176 417T137 357Q111 295 94 221T76 99Q76 59 94 59Q119 59 161 100T245 204Q290 274 319 414ZM459 655Q450 606 425 579T362
552Q339 552 298 568Q252 586 251 587Q229 596 213 596Q194 596 183 587T161 552H132Q147 607 170 631T230 655Q257 655 293 641L353 617Q365 612 380 612T405 621T431 655H459Z" />
<glyph unicode="&#xe4;" glyph-name="adieresis" horiz-adv-x="444" d="M406 85Q290 -11 260 -11Q236 -11 236 26Q236 50 242 77L271 204Q193 94 133 42Q72 -11 38 -11Q24 -11 14 11T4 66Q4 126 25 206T79 354Q98 391 125 416T199 464Q236 482 274 482Q310 482
359 463L392 481L402 472L310 93Q309 90 309 83Q309 59 324 59Q343 59 386 95Q388 97 399 106L406 85ZM319 414Q265 433 234 433Q197 433 176 417T137 357Q111 295 94 221T76 99Q76 59 94 59Q119 59 161 100T245 204Q290 274 319 414ZM261 616Q261 587 246 568T207
549Q188 549 178 560T167 590Q167 616 185 636T225 657Q241 657 251 646T261 616ZM421 616Q421 587 406 568T367 549Q348 549 338 560T327 590Q327 616 345 636T385 657Q401 657 411 646T421 616Z" />
<glyph unicode="&#xe5;" glyph-name="aring" horiz-adv-x="444" d="M406 85Q290 -11 260 -11Q236 -11 236 26Q236 50 242 77L271 204Q193 94 133 42Q72 -11 38 -11Q24 -11 14 11T4 66Q4 126 25 206T79 354Q98 391 125 416T199 464Q236 482 274 482Q310 482 359
463L392 481L402 472L310 93Q309 90 309 83Q309 59 324 59Q343 59 386 95Q388 97 399 106L406 85ZM319 414Q265 433 234 433Q197 433 176 417T137 357Q111 295 94 221T76 99Q76 59 94 59Q119 59 161 100T245 204Q290 274 319 414ZM395 603Q395 561 366 532T295
503Q253 503 224 532T195 603T224 674T296 703Q337 703 366 674T395 603ZM357 574T357 603T340 649T295 667T250 650T233 603T250 557T295 539T340 556Z" />
<glyph unicode="&#xe6;" glyph-name="ae" horiz-adv-x="638" d="M586 91Q512 32 470 11T383 -11Q336 -11 309 10T268 81Q215 30 178 10T97 -11Q1 -11 1 92Q1 252 216 252H284Q290 270 290 307Q290 434 180 434Q154 434 127 425Q119 418 116 411L96 353L78 358L72
426Q77 429 84 433T97 442Q133 466 156 474T212 482Q265 482 296 461T351 388Q413 439 456 460T539 482Q576 482 599 460T623 403Q623 366 596 330T522 271Q454 236 349 230Q336 161 336 132Q336 88 358 62T420 36Q464 36 541 88Q544 90 547 92T553 96T559 100L579
113L586 91ZM272 170Q277 186 282 228H244Q74 228 74 104Q74 72 91 54T141 36Q184 36 220 73T272 170ZM549 388Q549 440 493 440Q434 440 391 373Q361 326 353 255Q397 260 404 261Q470 273 509 307T549 388Z" />
<glyph unicode="&#xe7;" glyph-name="ccedilla" horiz-adv-x="407" d="M354 95L304 54Q236 -3 170 -10L133 -64Q149 -62 156 -62Q195 -62 217 -80T239 -132Q239 -170 206 -193T116 -216Q81 -216 28 -196L45 -167Q88 -181 114 -181Q137 -181 152 -169T167 -136Q167
-119 154 -109T120 -98Q110 -98 87 -104L78 -96L132 -10Q25 1 25 136Q25 216 51 287T120 397T211 458T293 482Q352 482 389 458Q376 421 365 330H342V390Q342 408 319 420T261 433Q213 433 183 407Q147 378 124 309T101 159Q101 40 186 40Q234 40 331 105L346 115L354
95Z" />
<glyph unicode="&#xe8;" glyph-name="egrave" horiz-adv-x="389" d="M336 92Q266 36 220 13T131 -11Q77 -11 46 21T15 112Q15 164 34 239T76 351Q106 399 173 440T290 482Q328 482 351 461T374 404Q374 314 250 259Q203 239 181 234L99 214Q91 175 91 134Q91 88
111 62T167 36Q223 36 304 94L328 111L336 92ZM300 388Q300 412 287 426T252 440Q209 440 176 409Q137 372 113 274L104 237Q168 251 213 272Q252 291 276 323T300 388ZM356 518H322L196 619Q174 636 181 656Q186 668 200 677T230 687T257 669L356 518Z" />
<glyph unicode="&#xe9;" glyph-name="eacute" horiz-adv-x="389" d="M336 92Q266 36 220 13T131 -11Q77 -11 46 21T15 112Q15 164 34 239T76 351Q106 399 173 440T290 482Q328 482 351 461T374 404Q374 314 250 259Q203 239 181 234L99 214Q91 175 91 134Q91 88
111 62T167 36Q223 36 304 94L328 111L336 92ZM300 388Q300 412 287 426T252 440Q209 440 176 409Q137 372 113 274L104 237Q168 251 213 272Q252 291 276 323T300 388ZM380 656Q380 636 352 619L190 518H156L309 669Q327 687 342 687T368 678T380 656Z" />
<glyph unicode="&#xea;" glyph-name="ecircumflex" horiz-adv-x="389" d="M336 92Q266 36 220 13T131 -11Q77 -11 46 21T15 112Q15 164 34 239T76 351Q106 399 173 440T290 482Q328 482 351 461T374 404Q374 314 250 259Q203 239 181 234L99 214Q91 175 91 134Q91
88 111 62T167 36Q223 36 304 94L328 111L336 92ZM300 388Q300 412 287 426T252 440Q209 440 176 409Q137 372 113 274L104 237Q168 251 213 272Q252 291 276 323T300 388ZM392 519H356L274 623L137 519H98L255 688H304L392 519Z" />
<glyph unicode="&#xeb;" glyph-name="edieresis" horiz-adv-x="389" d="M336 92Q266 36 220 13T131 -11Q77 -11 46 21T15 112Q15 164 34 239T76 351Q106 399 173 440T290 482Q328 482 351 461T374 404Q374 314 250 259Q203 239 181 234L99 214Q91 175 91 134Q91
88 111 62T167 36Q223 36 304 94L328 111L336 92ZM300 388Q300 412 287 426T252 440Q209 440 176 409Q137 372 113 274L104 237Q168 251 213 272Q252 291 276 323T300 388ZM237 616Q237 587 222 568T183 549Q164 549 154 560T143 590Q143 616 161 636T201 657Q217
657 227 646T237 616ZM397 616Q397 587 382 568T343 549Q324 549 314 560T303 590Q303 616 321 636T361 657Q377 657 387 646T397 616Z" />
<glyph unicode="&#xec;" glyph-name="igrave" horiz-adv-x="278" d="M241 85Q168 31 134 11T81 -9Q51 -9 51 30Q51 61 64 107L130 347Q138 377 138 391Q138 412 121 412Q108 412 73 389L41 368L34 388L62 408Q166 482 196 482Q221 482 221 456Q221 446 215 420L138
116Q131 90 131 76Q131 56 144 56Q160 56 205 86L231 103L241 85ZM302 518H268L142 619Q120 636 127 656Q132 668 146 677T176 687T203 669L302 518Z" />
<glyph unicode="&#xed;" glyph-name="iacute" horiz-adv-x="278" d="M241 85Q168 31 134 11T81 -9Q51 -9 51 30Q51 61 64 107L130 347Q138 377 138 391Q138 412 121 412Q108 412 73 389L41 368L34 388L62 408Q166 482 196 482Q221 482 221 456Q221 446 215 420L138
116Q131 90 131 76Q131 56 144 56Q160 56 205 86L231 103L241 85ZM326 656Q326 636 298 619L136 518H102L255 669Q273 687 288 687T314 678T326 656Z" />
<glyph unicode="&#xee;" glyph-name="icircumflex" horiz-adv-x="278" d="M241 85Q168 31 134 11T81 -9Q51 -9 51 30Q51 61 64 107L130 347Q138 377 138 391Q138 412 121 412Q108 412 73 389L41 368L34 388L62 408Q166 482 196 482Q221 482 221 456Q221 446 215
420L138 116Q131 90 131 76Q131 56 144 56Q160 56 205 86L231 103L241 85ZM338 519H302L220 623L83 519H44L201 688H250L338 519Z" />
<glyph unicode="&#xef;" glyph-name="idieresis" horiz-adv-x="278" d="M241 85Q168 31 134 11T81 -9Q51 -9 51 30Q51 61 64 107L130 347Q138 377 138 391Q138 412 121 412Q108 412 73 389L41 368L34 388L62 408Q166 482 196 482Q221 482 221 456Q221 446 215
420L138 116Q131 90 131 76Q131 56 144 56Q160 56 205 86L231 103L241 85ZM183 616Q183 587 168 568T129 549Q110 549 100 560T89 590Q89 616 107 636T147 657Q163 657 173 646T183 616ZM343 616Q343 587 328 568T289 549Q270 549 260 560T249 590Q249 616 267
636T307 657Q323 657 333 646T343 616Z" />
<glyph unicode="&#xf0;" glyph-name="eth" horiz-adv-x="444" d="M478 667L348 604Q407 475 407 352Q407 267 377 187T295 52Q235 -11 149 -11Q17 -11 17 149Q17 226 44 297T120 419Q181 482 267 482Q301 482 336 462Q334 522 303 582L168 516L156 545L285 610Q240
670 180 688L200 733Q285 689 331 630L466 696L478 667ZM336 326Q336 444 245 444Q180 444 140 376Q119 339 106 279T93 159Q93 27 185 27Q247 27 286 97Q308 136 322 200T336 326Z" />
<glyph unicode="&#xf1;" glyph-name="ntilde" horiz-adv-x="556" d="M514 85Q441 30 408 11T354 -9Q324 -9 324 31Q324 54 337 107L389 319Q400 363 400 390Q400 414 383 414Q349 414 300 373T209 268Q175 216 156 159T123 8Q97 3 53 -9L46 2Q77 109 102 230T128
389Q128 414 110 414Q100 414 63 389L31 368L24 388L52 408Q156 482 185 482Q208 482 208 449Q208 435 202 408L164 247Q233 344 282 389Q326 430 373 456T452 482T483 446Q483 418 472 372L406 96Q404 88 404 76Q404 56 417 56Q432 56 478 86L504 103L514 85ZM503
655Q494 606 469 579T406 552Q383 552 342 568Q296 586 295 587Q273 596 257 596Q238 596 227 587T205 552H176Q191 607 214 631T274 655Q301 655 337 641L397 617Q409 612 424 612T449 621T475 655H503Z" />
<glyph unicode="&#xf2;" glyph-name="ograve" horiz-adv-x="444" d="M411 331Q411 255 381 178T305 57Q232 -11 145 -11Q83 -11 50 31T17 152Q17 244 49 317T143 433Q212 482 278 482Q340 482 375 442T411 331ZM335 315Q335 444 241 444Q201 444 181 427Q144 397
119 317T93 151Q93 92 117 60T185 27Q232 27 260 60Q293 100 314 171T335 315ZM369 518H335L209 619Q187 636 194 656Q199 668 213 677T243 687T270 669L369 518Z" />
<glyph unicode="&#xf3;" glyph-name="oacute" horiz-adv-x="444" d="M411 331Q411 255 381 178T305 57Q232 -11 145 -11Q83 -11 50 31T17 152Q17 244 49 317T143 433Q212 482 278 482Q340 482 375 442T411 331ZM335 315Q335 444 241 444Q201 444 181 427Q144 397
119 317T93 151Q93 92 117 60T185 27Q232 27 260 60Q293 100 314 171T335 315ZM393 656Q393 636 365 619L203 518H169L322 669Q340 687 355 687T381 678T393 656Z" />
<glyph unicode="&#xf4;" glyph-name="ocircumflex" horiz-adv-x="444" d="M411 331Q411 255 381 178T305 57Q232 -11 145 -11Q83 -11 50 31T17 152Q17 244 49 317T143 433Q212 482 278 482Q340 482 375 442T411 331ZM335 315Q335 444 241 444Q201 444 181 427Q144
397 119 317T93 151Q93 92 117 60T185 27Q232 27 260 60Q293 100 314 171T335 315ZM405 519H369L287 623L150 519H111L268 688H317L405 519Z" />
<glyph unicode="&#xf5;" glyph-name="otilde" horiz-adv-x="444" d="M411 331Q411 255 381 178T305 57Q232 -11 145 -11Q83 -11 50 31T17 152Q17 244 49 317T143 433Q212 482 278 482Q340 482 375 442T411 331ZM335 315Q335 444 241 444Q201 444 181 427Q144 397
119 317T93 151Q93 92 117 60T185 27Q232 27 260 60Q293 100 314 171T335 315ZM448 655Q439 606 414 579T351 552Q328 552 287 568Q241 586 240 587Q218 596 202 596Q183 596 172 587T150 552H121Q136 607 159 631T219 655Q246 655 282 641L342 617Q354 612 369
612T394 621T420 655H448Z" />
<glyph unicode="&#xf6;" glyph-name="odieresis" horiz-adv-x="444" d="M411 331Q411 255 381 178T305 57Q232 -11 145 -11Q83 -11 50 31T17 152Q17 244 49 317T143 433Q212 482 278 482Q340 482 375 442T411 331ZM335 315Q335 444 241 444Q201 444 181 427Q144
397 119 317T93 151Q93 92 117 60T185 27Q232 27 260 60Q293 100 314 171T335 315ZM250 616Q250 587 235 568T196 549Q177 549 167 560T156 590Q156 616 174 636T214 657Q230 657 240 646T250 616ZM410 616Q410 587 395 568T356 549Q337 549 327 560T316 590Q316
616 334 636T374 657Q390 657 400 646T410 616Z" />
<glyph unicode="&#xf7;" glyph-name="divide" horiz-adv-x="606" d="M566 222H40V278H566V222ZM361 447T361 423T344 382T303 365T262 382T245 423T262 464T303 481T344 464ZM361 101T361 77T344 36T303 19T262 36T245 77T262 118T303 135T344 118Z" />
<glyph unicode="&#xf8;" glyph-name="oslash" horiz-adv-x="444" d="M460 490L394 415Q411 373 411 330Q411 265 387 196T326 80Q292 39 243 14T146 -11Q88 -11 52 29L6 -24L-18 -4L35 56Q16 94 16 150Q16 308 117 414Q182 482 277 482Q339 482 376 442L436 510L460
490ZM335 312Q335 317 333 335V346L103 86Q127 27 185 27Q246 27 285 97Q306 134 320 196T335 312ZM325 384Q299 444 242 444Q179 444 139 376Q118 339 105 279T92 159Q92 146 95 124L325 384Z" />
<glyph unicode="&#xf9;" glyph-name="ugrave" horiz-adv-x="556" d="M512 85Q437 29 404 9T352 -11Q322 -11 322 31Q322 58 333 97L370 239Q307 136 228 63T102 -11Q87 -11 77 0T67 29Q67 57 71 77L134 374Q136 384 136 392Q136 412 119 412Q106 412 71 389L39
368L32 388L60 408Q163 482 193 482Q215 482 215 451Q215 435 210 408L153 137Q146 101 146 85Q146 59 159 59Q190 59 242 107T339 225Q384 296 407 414L417 465L485 482L492 473L408 116Q402 92 402 76Q402 59 415 59Q434 59 476 86L502 103L512 85ZM427 518H393L267
619Q245 636 252 656Q257 668 271 677T301 687T328 669L427 518Z" />
<glyph unicode="&#xfa;" glyph-name="uacute" horiz-adv-x="556" d="M512 85Q437 29 404 9T352 -11Q322 -11 322 31Q322 58 333 97L370 239Q307 136 228 63T102 -11Q87 -11 77 0T67 29Q67 57 71 77L134 374Q136 384 136 392Q136 412 119 412Q106 412 71 389L39
368L32 388L60 408Q163 482 193 482Q215 482 215 451Q215 435 210 408L153 137Q146 101 146 85Q146 59 159 59Q190 59 242 107T339 225Q384 296 407 414L417 465L485 482L492 473L408 116Q402 92 402 76Q402 59 415 59Q434 59 476 86L502 103L512 85ZM451 656Q451
636 423 619L261 518H227L380 669Q398 687 413 687T439 678T451 656Z" />
<glyph unicode="&#xfb;" glyph-name="ucircumflex" horiz-adv-x="556" d="M512 85Q437 29 404 9T352 -11Q322 -11 322 31Q322 58 333 97L370 239Q307 136 228 63T102 -11Q87 -11 77 0T67 29Q67 57 71 77L134 374Q136 384 136 392Q136 412 119 412Q106 412 71 389L39
368L32 388L60 408Q163 482 193 482Q215 482 215 451Q215 435 210 408L153 137Q146 101 146 85Q146 59 159 59Q190 59 242 107T339 225Q384 296 407 414L417 465L485 482L492 473L408 116Q402 92 402 76Q402 59 415 59Q434 59 476 86L502 103L512 85ZM463 519H427L345
623L208 519H169L326 688H375L463 519Z" />
<glyph unicode="&#xfc;" glyph-name="udieresis" horiz-adv-x="556" d="M512 85Q437 29 404 9T352 -11Q322 -11 322 31Q322 58 333 97L370 239Q307 136 228 63T102 -11Q87 -11 77 0T67 29Q67 57 71 77L134 374Q136 384 136 392Q136 412 119 412Q106 412 71 389L39
368L32 388L60 408Q163 482 193 482Q215 482 215 451Q215 435 210 408L153 137Q146 101 146 85Q146 59 159 59Q190 59 242 107T339 225Q384 296 407 414L417 465L485 482L492 473L408 116Q402 92 402 76Q402 59 415 59Q434 59 476 86L502 103L512 85ZM308 616Q308
587 293 568T254 549Q235 549 225 560T214 590Q214 616 232 636T272 657Q288 657 298 646T308 616ZM468 616Q468 587 453 568T414 549Q395 549 385 560T374 590Q374 616 392 636T432 657Q448 657 458 646T468 616Z" />
<glyph unicode="&#xfd;" glyph-name="yacute" horiz-adv-x="500" d="M490 473L349 33Q305 -106 229 -191T74 -276Q40 -276 16 -253T-8 -198Q-8 -187 -7 -180L41 -146L51 -150Q49 -168 49 -172Q49 -198 67 -216T111 -234Q164 -234 204 -176T282 16L331 187Q275
102 219 46T135 -11Q116 -11 104 9T92 60L93 100L110 343Q114 410 89 410Q79 410 64 398L14 368L3 386L85 442Q143 482 160 482Q184 482 184 419Q184 384 180 322L165 128Q160 67 184 67Q200 67 232 95T290 162Q349 250 370 331L405 463Q436 466 479 482L490 473ZM427
656Q427 636 399 619L237 518H203L356 669Q374 687 389 687T415 678T427 656Z" />
<glyph unicode="&#xfe;" glyph-name="thorn" horiz-adv-x="500" d="M433 371Q433 315 411 243T358 125Q326 78 256 34T144 -11Q124 -11 92 0L83 3L41 -259L-32 -276L-39 -270L-31 -233L18 8L130 622Q132 636 132 646Q132 670 98 670H50L54 691Q148 700 214 733L226
722L132 288Q157 331 175 355T223 406Q305 482 374 482Q401 482 417 452T433 371ZM361 356Q361 424 323 424Q261 424 195 343T111 165L93 59Q130 36 175 36Q238 36 268 80Q308 137 334 216T361 356Z" />
<glyph unicode="&#xff;" glyph-name="ydieresis" horiz-adv-x="500" d="M490 473L349 33Q305 -106 229 -191T74 -276Q40 -276 16 -253T-8 -198Q-8 -187 -7 -180L41 -146L51 -150Q49 -168 49 -172Q49 -198 67 -216T111 -234Q164 -234 204 -176T282 16L331 187Q275
102 219 46T135 -11Q116 -11 104 9T92 60L93 100L110 343Q114 410 89 410Q79 410 64 398L14 368L3 386L85 442Q143 482 160 482Q184 482 184 419Q184 384 180 322L165 128Q160 67 184 67Q200 67 232 95T290 162Q349 250 370 331L405 463Q436 466 479 482L490 473ZM284
616Q284 587 269 568T230 549Q211 549 201 560T190 590Q190 616 208 636T248 657Q264 657 274 646T284 616ZM444 616Q444 587 429 568T390 549Q371 549 361 560T350 590Q350 616 368 636T408 657Q424 657 434 646T444 616Z" />
</font>
</defs>
</svg>
